<ttFont>
<head>
    <!-- Most of this table will be recalculated by the compiler -->
    <tableVersion value="1.0"/>
    <fontRevision value="1.0"/>
    <checkSumAdjustment value="0x9eeaf733"/>
    <magicNumber value="0x5f0f3cf5"/>
    <flags value="00000000 00000011"/>
    <unitsPerEm value="2048"/>
    <created value="Tue May 30 14:42:30 2017"/>
    <modified value="Wed May 31 02:54:13 2017"/>
    <xMin value="-510"/>
    <yMin value="-508"/>
    <xMax value="2647"/>
    <yMax value="2108"/>
<macStyle value="00000000 00000010"/>
    <lowestRecPPEM value="3"/>
    <fontDirectionHint value="2"/>
    <indexToLocFormat value="0"/>
    <glyphDataFormat value="0"/>
  </head>
          <CharString index="0">
            -16 rmoveto
            153 95 79 75 37 hvcurveto
            14 hlineto
            -25 -138 rlineto
            249 hlineto
            108 611 rlineto
            7 40 7 45 36 vvcurveto
            218 -152 129 -258 -272 -144 -145 -162 -25 vhcurveto
            249 hlineto
            59 18 58 45 98 hhcurveto
            123 51 -70 -74 -13 -2 -15 -2 -9 hvcurveto
            -11 -71 rlineto
            -259 hlineto
            -259 -163 -111 -204 -11 hvcurveto
            -1 -9 0 -9 -7 vvcurveto
            -191 141 -109 176 vhcurveto
            -54 332 rmoveto
            81 64 66 131 vhcurveto
            205 hlineto
            -21 -116 rlineto
            -97 -19 -97 -68 -108 hhcurveto
            -95 -60 56 78 hvcurveto
            return
          </CharString>
          <CharString index="1">
            rmoveto
            267 171 156 168 23 hvcurveto
            -251 hlineto
            -69 -18 -71 -47 -105 hhcurveto
            -149 -58 94 106 27 4 36 5 21 hvcurveto
            672 hlineto
            10 46 15 96 10 vvcurveto
            248 20 -148 209 -296 hhcurveto
            -249 -203 -141 -280 -49 hvcurveto
            -20 -110 rlineto
            -8 -42 -7 -53 -53 vvcurveto
            -284 193 -138 252 vhcurveto
            262 654 rmoveto
            -415 hlineto
            11 49 rlineto
            131 30 90 63 107 hhcurveto
            137 62 -98 -118 -18 hvcurveto
            -6 -2 -14 -2 -7 vhcurveto
            return
          </CharString>
          <CharString index="2">
            1063 -104 callsubr
            return
          </CharString>
          <CharString index="3">
            rmoveto
            -262 hlineto
            -106 -600 rlineto
            -156 -27 -78 -104 -141 hhcurveto
            -107 -65 61 108 37 5 45 6 35 hvcurveto
            102 574 108 callgsubr
            -104 -576 rlineto
            -10 -53 -10 -62 -67 vvcurveto
            -194 125 -127 202 158 102 86 99 47 vhcurveto
            16 hlineto
            -30 -169 rlineto
            254 hlineto
            return
          </CharString>
          <CharString index="4">
            -3 -13 -1 -15 -16 vvcurveto
            -241 236 -145 281 304 235 156 282 227 -160 81 -165 57 vhcurveto
            -111 37 rlineto
            -126 44 -90 50 94 vvcurveto
            110 111 58 119 123 112 -63 -115 vhcurveto
            -9 -1 -5 -2 vvcurveto
            247 hlineto
            5 2 22 10 vvcurveto
            222 -206 155 -275 -283 -228 -149 -271 -222 169 -102 173 -58 vhcurveto
            97 -34 rlineto
            117 -39 96 -39 -104 vvcurveto
            -116 -114 -62 -135 -159 -110 85 104 8 0 7 1 6 vhcurveto
            return
          </CharString>
          <CharString index="5">
            rmoveto
            -198 -179 -126 -290 -59 hvcurveto
            -17 -84 rlineto
            -10 -47 -3 -66 -32 vvcurveto
            -257 161 -150 203 151 101 72 87 38 vhcurveto
            16 hlineto
            -24 -140 117 callsubr
            -68 -79 -157 hhcurveto
            -115 -82 55 64 -8 hvcurveto
            -1 3 -1 8 -1 4 rrcurveto
            -247 hlineto
            -1 -1 -1 -11 -10 vvcurveto
            -163 151 -153 293 290 181 127 255 46 vhcurveto
            186 1067 rlineto
            -263 hlineto
            -35 -199 rlineto
            -14 hlineto
            119 -30 -107 96 -169 hhcurveto
            271 -437 rmoveto
            -13 -1 -38 -8 -42 vhcurveto
            -13 -77 rlineto
            -158 -28 -93 -92 -118 hhcurveto
            -133 -75 89 136 25 6 46 5 23 hvcurveto
            13 70 rlineto
            156 28 86 95 125 hhcurveto
            122 84 -87 -133 hvcurveto
            return
          </CharString>
          <CharString index="6">
            rmoveto
            -46 callsubr
            -53 -50 -73 -72 53 -51 -23 callsubr
            58 callgsubr
            -53 50 -75 56 callsubr
            -72 52 -51 75 hvcurveto
            endchar
          </CharString>
          <CharString index="7">
            rmoveto
            -280 hlineto
            -345 -818 rlineto
            -13 hlineto
            -95 818 rlineto
            -271 hlineto
            176 -1047 -28 -63 rlineto
            -81 -38 -50 -38 -95 hhcurveto
            -35 -33 4 7 -28 hvcurveto
            -39 -203 rlineto
            -7 33 55 -8 59 hhcurveto
            236 111 79 232 121 hvcurveto
            3 5 32 58 4 10 rrcurveto
            return
          </CharString>
          <CharString index="8" raw="1">
            d51db1f7 7405fdb2 06fb851c faaad51d
            b2f77605 fdb206f8 84fb7615 570a
          </CharString>
          <CharString index="9">
            165 190 865 rmoveto
            -39 -199 rlineto
            -7 -39 -6 -70 -45 vvcurveto
            -375 253 -163 297 304 214 167 266 47 vhcurveto
            56 313 rlineto
            -541 hlineto
            -34 -196 90 callgsubr
            -23 -122 rlineto
            -119 -23 -125 -76 -145 hhcurveto
            -163 -128 104 206 39 7 64 6 34 hvcurveto
            33 166 rlineto
            215 41 115 122 180 hhcurveto
            193 71 -127 -80 4 hvcurveto
            1 -9 0 -11 -1 -7 rrcurveto
            262 hlineto
            2 7 1 24 6 vvcurveto
            201 -164 230 -367 -329 -217 -199 -327 -60 vhcurveto
            return
          </CharString>
          <CharString index="10">
            -99 callgsubr
            endchar
          </CharString>
          <CharString index="11">
            105 367 hmoveto
            89 497 rlineto
            183 hlineto
            16 32 1 11 hhcurveto
            161 -498 rlineto
            284 hlineto
            -181 536 167 55 123 134 21 193 rlinecurve
            3 21 2 28 22 vvcurveto
            232 -155 145 -273 vhcurveto
            -514 hlineto
            -241 -1366 rlineto
            689 1145 rmoveto
            137 79 -59 -116 -16 -2 -21 -2 -15 hvcurveto
            -117 -16 -83 -89 -193 hhcurveto
            -212 hlineto
            79 433 rlineto
            return
          </CharString>
          <CharString index="12">
            260 105 callsubr
            239 44 123 97 158 hhcurveto
            186 108 -124 70 callsubr
            -30 -171 rlineto
            -234 -43 -115 -111 -169 hhcurveto
            -190 -107 123 183 49 5 43 8 46 hvcurveto
            875 -158 rmoveto
            37 199 rlineto
            10 57 3 58 44 vvcurveto
            109 -26 94 -46 77 vhcurveto
            2 hlineto
            165 -2 102 98 33 193 24 150 rcurveline
            -211 hlineto
            -19 -121 rlineto
            -79 -15 -36 -59 -111 hhcurveto
            -58 -52 16 18 -59 hvcurveto
            21 -68 -81 17 -103 61 callsubr
            -59 hvcurveto
            -36 -199 rlineto
            -11 -57 -2 -64 -54 vvcurveto
            -329 233 -191 314 347 207 194 332 61 vhcurveto
            return
          </CharString>
          <CharString index="13">
            78 -93 callgsubr
            return
          </CharString>
          <CharString index="14">
            133 639 -25 rmoveto
            317 217 194 338 62 hvcurveto
            36 187 rlineto
            7 43 5 70 42 vvcurveto
            362 -229 180 -309 -339 -162 -193 -220 -42 vhcurveto
            -1 -5 -5 -24 -6 vvcurveto
            106 callsubr
            22 89 92 162 hhcurveto
            158 122 -95 -193 1 hvcurveto
            -18 -2 -23 -2 -22 vhcurveto
            0 -488 vlineto
            -35 -212 rlineto
            492 hlineto
            -1 -5 -16 -71 -5 vvcurveto
            -182 -41 -105 -107 -168 hhcurveto
            -169 -84 112 106 -7 hvcurveto
            -1 6 0 8 6 vvcurveto
            -261 hlineto
            -2 -14 -1 -19 -10 vvcurveto
            -219 188 -215 334 vhcurveto
            return
          </CharString>
          <CharString index="15">
            -19 rmoveto
            240 173 150 174 22 hvcurveto
            -250 hlineto
            -65 -18 -69 -51 -107 hhcurveto
            -145 -59 93 110 14 0 15 9 52 hvcurveto
            669 hlineto
            7 31 18 101 20 vvcurveto
            230 19 -127 227 -302 hhcurveto
            -142 -125 -53 -88 -76 hvcurveto
            -9 hlineto
            89 -62 -105 52 -154 hhcurveto
            -234 -172 -131 -179 -24 hvcurveto
            249 hlineto
            59 18 57 46 99 hhcurveto
            125 49 -74 -69 -12 -2 -16 -1 -7 hvcurveto
            -13 -76 93 callsubr
            -277 -160 -119 -210 -195 140 -118 226 195 125 91 120 73 hvcurveto
            9 hlineto
            -137 60 136 -74 170 hhcurveto
            -871 334 rmoveto
            81 63 69 132 vhcurveto
            205 hlineto
            -19 -101 rlineto
            -108 -21 -91 -71 -114 hhcurveto
            -98 -57 54 76 hvcurveto
            1117 320 rmoveto
            -422 hlineto
            1 2 1 15 8 33 rrcurveto
            129 26 98 64 108 hhcurveto
            134 67 -97 -120 -18 hvcurveto
            -5 -2 -15 -1 -6 vhcurveto
            return
          </CharString>
          <CharString index="16">
            rmoveto
            243 154 165 255 42 hvcurveto
            25 132 rlineto
            9 47 2 52 43 vvcurveto
            245 -144 150 -212 -165 -96 -95 -105 -40 vhcurveto
            -16 117 callgsubr
            -265 hlineto
            -248 -1416 42 callsubr
            97 554 rlineto
            14 hlineto
            -107 21 108 -107 172 hhcurveto
            -267 450 rmoveto
            11 1 26 4 24 vhcurveto
            18 107 rlineto
            154 26 88 100 130 hhcurveto
            124 80 -80 -132 -28 -2 -40 -3 -21 hvcurveto
            -20 -109 rlineto
            -140 -26 -85 -102 -131 hhcurveto
            -101 -103 77 153 hvcurveto
            return
          </CharString>
          <CharString index="17">
            rmoveto
            122 77 105 119 4 hvcurveto
            -139 hlineto
            -55 -5 -22 -43 -44 -69 -17 112 -148 hhcurveto
            -125 -70 -106 -112 -6 hvcurveto
            140 hlineto
            53 5 22 35 46 77 12 -108 140 hhcurveto
            return
          </CharString>
          <CharString index="18">
            442 1049 -16 rmoveto
            285 166 171 247 49 hvcurveto
            18 94 rlineto
            10 46 3 51 36 vvcurveto
            293 -199 160 -269 -244 -180 -146 -228 -56 vhcurveto
            -3 -8 -8 -43 -3 -8 rrcurveto
            -152 hlineto
            74 414 rlineto
            -266 hlineto
            -187 -1063 -62 callsubr
            return
          </CharString>
          <CharString index="19">
            hmoveto
            -87 callgsubr
            return
          </CharString>
          <CharString index="20">
            104 581 rlineto
            571 hlineto
            -104 -581 65 callsubr
            -16 callsubr
            -272 hlineto
            -97 -552 rlineto
            -570 -40 callsubr
            return
          </CharString>
          <CharString index="21">
            365 686 -24 rmoveto
            289 221 148 294 52 hvcurveto
            134 754 rlineto
            48 hlineto
            175 111 127 161 27 hvcurveto
            26 155 rlineto
            -209 hlineto
            -22 -125 rlineto
            -78 -15 -34 -47 -87 hhcurveto
            -262 hlineto
            -158 -888 rlineto
            -179 -32 -110 -77 -141 hhcurveto
            -162 -98 96 145 29 4 36 4 19 hvcurveto
            143 819 rlineto
            -273 hlineto
            -144 -821 rlineto
            -5 -33 -6 -45 -43 vvcurveto
            -295 236 -152 288 vhcurveto
            return
          </CharString>
          <CharString index="22">
            152 761 169 rmoveto
            16 hlineto
            -30 -169 rlineto
            253 hlineto
            155 871 rlineto
            20 hlineto
            178 104 103 179 31 hvcurveto
            30 176 rlineto
            -210 hlineto
            111 callsubr
            -78 -14 -25 -46 -88 hhcurveto
            -229 hlineto
            -106 -600 rlineto
            -156 -27 -78 -104 -141 hhcurveto
            -107 -65 61 108 37 5 45 6 35 hvcurveto
            102 574 -7 callgsubr
            -103 -576 rlineto
            -10 -53 -10 -62 -67 vvcurveto
            -194 125 -127 202 158 102 86 99 47 vhcurveto
            return
          </CharString>
          <CharString index="23">
            rmoveto
            -155 hlineto
            -36 -209 rlineto
            153 hlineto
            -93 -520 rlineto
            -7 -42 -4 62 callsubr
            105 24 callsubr
            18 3 22 11 59 hvcurveto
            79 445 rlineto
            220 hlineto
            36 209 87 callsubr
            46 264 93 callsubr
            return
          </CharString>
          <CharString index="24">
            rmoveto
            608 852 rlineto
            -297 hlineto
            -401 -589 rlineto
            -12 hlineto
            -196 589 rlineto
            -290 hlineto
            316 -859 -91 -506 65 callsubr
            return
          </CharString>
          <CharString index="25">
            rmoveto
            -53 -44 41 52 53 45 41 52 53 43 -41 -53 -52 -43 -41 -53 hvcurveto
            -3 -120 rmoveto
            117 98 91 123 117 -90 94 -120 -118 -98 -90 -122 -117 90 -96 121 hvcurveto
            endchar
          </CharString>
          <CharString index="26">
            rmoveto
            150 hlineto
            148 78 -76 -105 -125 -91 -87 -150 -156 -91 88 94 5 0 5 1 7 hvcurveto
            -254 hlineto
            -2 -14 -2 -17 -19 vvcurveto
            -241 222 -138 276 290 233 154 277 149 -100 113 -153 31 vhcurveto
            2 14 rlineto
            162 15 141 118 190 vvcurveto
            245 -219 112 -240 -284 -168 -154 -228 -40 vhcurveto
            259 hlineto
            81 21 63 79 141 hhcurveto
            118 91 -57 -107 -114 -87 -75 -157 hvcurveto
            -165 hlineto
            return
          </CharString>
          <CharString index="27">
            rmoveto
            -4 -18 -3 -23 -20 vvcurveto
            -144 120 -97 160 183 144 112 190 26 vhcurveto
            -154 hlineto
            -100 -20 -70 -55 -88 hhcurveto
            -96 -46 62 74 9 0 5 1 5 hvcurveto
            return
          </CharString>
          <CharString index="28">
            rmoveto
            221 hlineto
            158 130 rlineto
            16 hlineto
            116 -130 rlineto
            212 hlineto
            -220 243 rlineto
            -215 hlineto
            return
          </CharString>
          <CharString index="29">
            rmoveto
            272 167 149 180 109 -73 82 -115 27 hvcurveto
            1 11 rlineto
            145 10 93 105 139 vvcurveto
            178 -178 110 -229 -259 -168 -137 -198 -34 vhcurveto
            247 hlineto
            62 23 53 65 117 hhcurveto
            94 70 -41 -71 -85 -65 -49 -118 hvcurveto
            -145 hlineto
            -31 -177 94 callgsubr
            96 63 -45 -70 -79 -71 -64 -108 -128 -79 68 81 -8 hvcurveto
            -245 hlineto
            -1 -6 1 -6 -7 vvcurveto
            -197 9 178 -144 272 hhcurveto
            return
          </CharString>
          <CharString index="30">
            1063 rmoveto
            -266 hlineto
            -300 -806 rlineto
            -12 hlineto
            -52 806 rlineto
            -245 hlineto
            -314 -806 rlineto
            -12 hlineto
            -32 806 rlineto
            -263 hlineto
            108 -1063 90 callgsubr
            299 757 rlineto
            10 hlineto
            56 -757 107 callgsubr
            return
          </CharString>
          <CharString index="31">
            rmoveto
            -203 hlineto
            -169 -221 rlineto
            -12 hlineto
            -101 221 rlineto
            -196 hlineto
            184 -355 rlineto
            200 hlineto
            endchar
          </CharString>
          <CharString index="32">
            rmoveto
            182 hlineto
            321 354 50 callsubr
            endchar
          </CharString>
          <CharString index="33" raw="1">
            8bf7a37b 15f793f7 08f71cf7 96f72a1f
            f8d2fa6f 05fbb306 fc1ffd5e 057f06fb
            5df95e05 fbbb06f7 e0fe999e bf05fb05
            3a4c5427 1b5c6793 8e801f67 fb7b0588
            94b57ece 1b0b  
          </CharString>
          <CharString index="34">
            rmoveto
            -74 57 -58 72 71 57 58 74 73 -57 58 -71 -72 -57 -58 -73 vhcurveto
            endchar
          </CharString>
          <CharString index="35">
            hmoveto
            422 928 rlineto
            13 hlineto
            99 -928 rlineto
            261 hlineto
            574 -18 callgsubr
            -285 hlineto
            -374 -992 rlineto
            -15 hlineto
            -84 992 87 callsubr
            -429 -992 rlineto
            -14 hlineto
            -20 992 rlineto
            -283 hlineto
            92 -75 callgsubr
            return
          </CharString>
          <CharString index="36">
            -11 callsubr
            endchar
          </CharString>
          <CharString index="37">
            hmoveto
            161 911 rlineto
            14 hlineto
            189 -757 94 callgsubr
            468 757 rlineto
            14 hlineto
            -164 -911 rlineto
            247 -9 callgsubr
            -300 hlineto
            -523 -856 rlineto
            -11 hlineto
            -219 856 rlineto
            -278 -97 callgsubr
            return
          </CharString>
          <CharString index="38">
            839 hlineto
            37 208 rlineto
            -510 hlineto
            3 15 605 648 33 192 rlineto
            -830 hlineto
            -38 -206 rlineto
            515 hlineto
            -3 -14 -620 -666 rlineto
            return
          </CharString>
          <CharString index="39">
            365 1074 hmoveto
            264 -4 callsubr
            -264 hlineto
            -681 -536 rmoveto
            108 60 -50 -85 -4 0 -5 -1 -4 hvcurveto
            -99 -6 -73 -78 -140 hhcurveto
            -145 hlineto
            58 325 rlineto
            -354 -527 rmoveto
            450 hlineto
            291 161 154 212 18 hvcurveto
            3 14 1 15 15 vvcurveto
            191 -136 128 -255 vhcurveto
            66 callsubr
            -266 hlineto
            return
          </CharString>
          <CharString index="40">
            -19 callsubr
            -271 hlineto
            -166 -936 rlineto
            -122 -22 -60 -80 -115 hhcurveto
            -109 -65 71 94 13 1 10 2 16 hvcurveto
            -256 -1 rlineto
            -4 -15 -4 -28 -33 vvcurveto
            -237 191 -143 245 244 171 143 276 48 vhcurveto
            return
          </CharString>
          <CharString index="41">
            rmoveto
            -134 -179 -143 -194 -115 -177 -32 -188 rcurveline
            419 hlineto
            -24 -137 rlineto
            217 hlineto
            23 137 rlineto
            128 hlineto
            32 182 rlineto
            -127 hlineto
            96 556 rlineto
            -526 -561 rmoveto
            1 7 75 112 100 138 97 130 rlinecurve
            11 hlineto
            -72 -387 rlineto
            endchar
          </CharString>
          <CharString index="42">
            rmoveto
            9 23 26 6 46 hhcurveto
            52 42 -32 -35 -43 -27 -30 -82 -40 hvcurveto
            63 -97 rlineto
            125 49 72 81 107 vvcurveto
            93 -82 69 -123 -59 -32 -6 -10 -26 vhcurveto
            endchar
          </CharString>
          <CharString index="43" raw="1">
            15f851f7 dc60ebfc 51fbdc05 f70ff755
            15f721a7 c1cfdd1b d0b45836 6a886785
            6c1f73fb 1405fb21 71554837 1b4564bf
            e6a98eaa 91b01ffb 67b91583 60886f5f
            1afb67f7 10fb17f7 5cf765f7 1bf719f7
            8ab41e99 dc0591a8 8fb4b11a f76afb10
            f718fb5d fb63fb1c fb1afb88 621e0e
          </CharString>
          <CharString index="44">
            rmoveto
            7 21 26 3 30 hhcurveto
            60 39 -27 -38 -44 -32 -28 -75 -35 hvcurveto
            60 -94 rlineto
            120 41 76 84 103 vvcurveto
            98 -93 61 -113 -43 -33 -5 -8 -24 vhcurveto
            return
          </CharString>
          <CharString index="45">
            rlineto
            266 hlineto
            78 443 rlineto
            164 hlineto
            -2 -1 -3 -2 vvcurveto
            -1 -21 0 -21 2 -21 rrcurveto
            -252 19 194 -137 241 hhcurveto
            -163 639 rmoveto
            154 27 78 91 120 hhcurveto
            128 72 38 callgsubr
            -150 -25 -75 -102 -126 hhcurveto
            -131 -71 96 128 37 4 31 6 28 hvcurveto
            return
          </CharString>
          <CharString index="46">
            1005 hlineto
            39 228 rlineto
            -673 hlineto
            2 15 811 929 31 193 rlineto
            -975 hlineto
            -39 -228 rlineto
            644 hlineto
            -1 -16 -812 -931 rlineto
            return
          </CharString>
          <CharString index="47">
            rmoveto
            205 hlineto
            164 149 rlineto
            12 hlineto
            107 -149 rlineto
            196 hlineto
            -204 269 rlineto
            -184 hlineto
            247 66 rmoveto
            112 92 100 132 9 hvcurveto
            -137 hlineto
            -66 -8 -26 -37 -40 -73 -14 129 -147 hhcurveto
            -112 -86 -93 -134 -11 hvcurveto
            137 hlineto
            60 7 27 33 43 79 8 -124 118 callsubr
          </CharString>
          <CharString index="48">
            rmoveto
            -378 -484 rlineto
            -12 hlineto
            -199 484 rlineto
            -312 hlineto
            304 -676 -543 -689 rlineto
            304 hlineto
            376 482 12 -1 220 -481 rlineto
            303 hlineto
            -321 683 560 682 rlineto
            return
          </CharString>
          <CharString index="49">
            262 -9 callgsubr
            -248 hlineto
            -755 -908 rlineto
            -13 hlineto
            164 908 rlineto
            -262 -97 callgsubr
            248 hlineto
            756 910 rlineto
            12 hlineto
            return
          </CharString>
          <CharString index="50">
            rmoveto
            1 13 rlineto
            54 6 43 38 57 hhcurveto
            54 38 -36 -52 -50 -33 -47 -84 -66 hvcurveto
            -352 -277 -29 -182 rlineto
            648 117 callgsubr
            -349 hlineto
            2 12 193 145 rlineto
            139 100 64 94 107 vvcurveto
            151 -124 99 -190 -188 -132 -104 -154 -9 vhcurveto
            -2 -32 rlineto
            endchar
          </CharString>
          <CharString index="51">
            rlineto
            232 hlineto
            36 209 rlineto
            -236 hlineto
            10 61 rlineto
            95 18 55 43 103 hhcurveto
            32 45 -3 -4 19 hvcurveto
            33 191 rlineto
            7 -41 -58 4 -50 hhcurveto
            -254 -125 -98 -221 -32 hvcurveto
            -11 -75 rlineto
            -171 hlineto
            -35 -209 rlineto
            169 hlineto
            return
          </CharString>
          <CharString index="52">
            rmoveto
            223 hlineto
            163 130 rlineto
            13 hlineto
            113 -130 rlineto
            212 hlineto
            -213 243 rlineto
            -208 hlineto
            return
          </CharString>
          <CharString index="53">
            rmoveto
            2 14 3 19 14 vvcurveto
            150 -135 97 -159 -199 -145 -112 -182 -25 vhcurveto
            158 hlineto
            89 17 76 57 95 hhcurveto
            111 45 -66 -78 hvcurveto
            -2 vlineto
            return
          </CharString>
          <CharString index="54">
            rmoveto
            -147 -1 129 -99 187 hhcurveto
            224 152 143 209 152 -91 96 -143 -75 -69 -26 -46 -43 hvcurveto
            -13 hlineto
            48 177 123 callsubr
            32 189 rlineto
            -573 hlineto
            -119 -493 rlineto
            221 hlineto
            27 33 38 14 37 hhcurveto
            60 41 -46 -67 hvcurveto
            -83 -1 -57 -59 -80 hhcurveto
            -64 -46 40 56 hvcurveto
            3 0 8 1 vvcurveto
            -211 hlineto
            -5 -11 -1 -16 -22 vvcurveto
            endchar
          </CharString>
          <CharString index="55">
            -16 callsubr
            -271 -97 callgsubr
            endchar
          </CharString>
          <CharString index="56">
            rmoveto
            196 -142 132 -209 -209 -152 -137 -190 -161 100 -112 144 47 35 9 20 27 vhcurveto
            16 hlineto
            -6 -11 -33 -36 -11 -14 -33 -36 -172 -160 -76 -67 rrcurveto
            313 hlineto
            43 40 106 102 27 32 rrcurveto
            128 142 57 122 129 vvcurveto
            -356 -126 rmoveto
            -77 -58 56 75 76 58 56 77 78 57 -56 -76 -75 -57 -56 -78 hvcurveto
            endchar
          </CharString>
          <CharString index="57">
            -30 551 -16 rmoveto
            269 199 155 361 56 hvcurveto
            14 85 6 88 96 vvcurveto
            110 -14 109 -26 75 vhcurveto
            -250 hlineto
            23 -88 9 -92 -85 vvcurveto
            -96 -6 -90 -21 -117 vhcurveto
            -217 -39 -88 -75 -125 hhcurveto
            -120 -53 58 104 29 4 48 6 35 hvcurveto
            103 586 100 callsubr
            -103 -581 rlineto
            -8 -45 -3 -45 -40 vvcurveto
            -235 141 -133 283 vhcurveto
            return
          </CharString>
          <CharString index="58">
            -9 callsubr
            -272 hlineto
            -99 -562 rlineto
            -12 -19 -114 -57 -147 hhcurveto
            -177 -73 84 171 31 hvcurveto
            67 376 rlineto
            -272 hlineto
            -64 -360 rlineto
            -330 -58 159 -174 309 hhcurveto
            152 124 52 16 29 hvcurveto
            12 hlineto
            -101 -569 rlineto
            return
          </CharString>
          <CharString index="59">
            rmoveto
            -634 hlineto
            -26 -134 rlineto
            635 hlineto
            endchar
          </CharString>
          <CharString index="60">
            rmoveto
            9 hlineto
            -81 21 96 -66 119 hhcurveto
            179 164 123 261 45 hvcurveto
            9 49 rlineto
            7 37 1 55 41 vvcurveto
            349 -282 278 -448 -410 -323 -254 -437 -77 vhcurveto
            -10 -51 rlineto
            -8 -50 -8 -64 -55 vvcurveto
            -460 325 -229 429 75 69 9 10 34 vhcurveto
            26 151 rlineto
            -11 -36 -71 -7 -73 hhcurveto
            -335 -268 163 386 46 6 56 7 42 hvcurveto
            8 39 rlineto
            352 64 255 208 320 hhcurveto
            319 243 -182 -301 -33 -2 -49 -5 -28 hvcurveto
            -4 -30 rlineto
            -195 -31 -84 -75 -88 hhcurveto
            -54 -41 33 52 13 3 17 1 9 hvcurveto
            82 467 rlineto
            -182 hlineto
            -23 -132 rlineto
            -8 hlineto
            78 -8 -74 83 -126 hhcurveto
            -161 -115 -113 -191 -35 hvcurveto
            -16 -88 rlineto
            -5 -31 -3 -35 -28 vvcurveto
            -163 107 -111 154 128 77 66 77 32 vhcurveto
            -293 222 rmoveto
            11 56 rlineto
            120 24 60 56 72 hhcurveto
            87 46 -66 -74 -15 -2 -17 -3 -18 hvcurveto
            -14 -82 rlineto
            -122 -22 -60 -46 -71 hhcurveto
            -92 -42 62 78 20 2 24 4 24 hvcurveto
            endchar
          </CharString>
          <CharString index="61">
            76 51 51 72 73 -52 50 -75 -75 return
          </CharString>
          <CharString index="62">
            282 hlineto
            -249 528 435 535 rlineto
            -295 hlineto
            -270 -374 rlineto
            -11 hlineto
            -147 374 rlineto
            -289 hlineto
            246 -531 -414 -532 90 callgsubr
            267 365 rlineto
            9 hlineto
            return
          </CharString>
          <CharString index="63">
            635 1082 rmoveto
            -281 -162 -156 -169 -27 hvcurveto
            251 hlineto
            69 20 69 46 110 hhcurveto
            144 58 -94 -106 -27 -4 -36 -5 -21 hvcurveto
            -672 hlineto
            -6 -25 -17 -92 -33 vvcurveto
            -250 -21 147 -208 287 hhcurveto
            257 204 140 290 51 hvcurveto
            18 100 rlineto
            8 42 7 54 56 vvcurveto
            280 -192 140 -244 vhcurveto
            -272 -655 rmoveto
            416 hlineto
            -11 -50 rlineto
            -131 -28 -92 -63 -112 hhcurveto
            -132 -62 98 118 18 hvcurveto
            6 2 15 1 7 vhcurveto
            return
          </CharString>
          <CharString index="64">
            rmoveto
            -281 -56 -38 -166 -120 hhcurveto
            -27 -18 7 0 hvcurveto
            -40 -234 rlineto
            0 30 -15 52 301 63 250 418 85 vhcurveto
            42 204 rlineto
            295 hlineto
            -153 -857 rlineto
            45 callgsubr
            -793 hlineto
            endchar
          </CharString>
          <CharString index="65">
            187 1063 rlineto
            return
          </CharString>
          <CharString index="66">
            1098 rmoveto
            25 hlineto
            -102 -548 -306 -1 rlineto
            209 -549 rmoveto
            870 hlineto
            38 228 rlineto
            -606 hlineto
            65 359 rlineto
            572 hlineto
            35 213 rlineto
            -570 hlineto
            61 338 rlineto
            605 hlineto
            38 228 rlineto
            -1044 hlineto
            -952 -1366 rlineto
            307 hlineto
            245 333 rlineto
            396 hlineto
            return
          </CharString>
          <CharString index="67">
            hlineto
            96 552 rlineto
            -271 -97 callgsubr
            return
          </CharString>
          <CharString index="68">
            201 1131 107 callsubr
            39 234 rlineto
            -1042 hlineto
            -40 -234 107 callsubr
            -201 -1131 rlineto
            return
          </CharString>
          <CharString index="69">
            rmoveto
            -180 73 callsubr
            225 -321 rlineto
            541 hmoveto
            -179 73 callsubr
            224 -321 rlineto
            return
          </CharString>
          <CharString index="70">
            564 694 -55 callgsubr
            return
          </CharString>
          <CharString index="71">
            rmoveto
            108 319 rlineto
            -199 hlineto
            -83 -319 rlineto
            endchar
          </CharString>
          <CharString index="72">
            981 237 rmoveto
            -574 hlineto
            200 1128 rlineto
            -271 -97 callgsubr
            846 hlineto
            return
          </CharString>
          <CharString index="73">
            813 635 rmoveto
            -415 hlineto
            11 49 rlineto
            131 30 90 63 107 hhcurveto
            137 62 -98 -118 -18 hvcurveto
            -6 -2 -14 -2 -7 vhcurveto
            -359 -1118 rmoveto
            37 callsubr
            28 99 rlineto
            0 vlineto
            251 11 161 152 23 162 26 callsubr
            -233 129 -136 187 -41 vhcurveto
            -41 -151 -10 111 callgsubr
            75 50 callgsubr
            -52 -9 -49 hhcurveto
            -34 -56 6 11 -32 41 callgsubr
            return
          </CharString>
          <CharString index="74">
            -64 50 -52 67 return
          </CharString>
          <CharString index="75">
            rmoveto
            212 18 callgsubr
            98 -30 callsubr
            594 -121 rmoveto
            -165 337 rlineto
            -214 hlineto
            211 -337 rlineto
            endchar
          </CharString>
          <CharString index="76">
            rmoveto
            -180 321 rlineto
            -227 hlineto
            225 -321 rlineto
            endchar
          </CharString>
          <CharString index="77">
            -172 rlineto
            198 hlineto
            -187 302 rlineto
            -187 hlineto
            return
          </CharString>
          <CharString index="78">
            rmoveto
            183 hlineto
            236 81 callgsubr
          </CharString>
          <CharString index="79">
            187 1069 -210 rmoveto
            -6 -21 -32 -3 -22 hhcurveto
            -65 -43 28 62 5 hvcurveto
            6 87 102 64 90 81 105 97 73 111 34 189 37 198 rcurveline
            9 54 4 61 33 vvcurveto
            352 -229 192 -331 -313 -231 -188 -334 -59 vhcurveto
            -36 -199 rlineto
            -11 -57 -2 -67 -43 vvcurveto
            -366 276 -155 241 56 67 15 20 34 vhcurveto
            2 -16 -78 -51 -43 -67 -5 -79 rlinecurve
            -8 -113 80 -77 139 -2 71 -1 53 16 18 5 rrcurveto
            -585 1189 rmoveto
            238 44 122 98 161 hhcurveto
            183 109 -125 -178 -25 -2 -59 -7 -39 hvcurveto
            -30 -171 rlineto
            -234 -43 -114 -111 -172 hhcurveto
            -187 -108 123 183 50 6 46 7 42 hvcurveto
            return
          </CharString>
          <CharString index="80">
            51 452 -13 rmoveto
            138 135 64 115 51 hvcurveto
            14 -5 hlineto
            -116 10 69 -53 144 hhcurveto
            38 41 5 7 24 hvcurveto
            35 199 rlineto
            -4 -15 -18 -2 -8 hhcurveto
            -57 -20 21 44 15 2 14 4 20 hvcurveto
            133 752 rlineto
            -250 hlineto
            -33 -192 rlineto
            -13 hlineto
            121 -20 -113 84 -170 hhcurveto
            -199 -154 -129 -255 -64 hvcurveto
            -8 -24 -24 -111 -4 -30 rrcurveto
            -10 -53 -4 -44 -59 vvcurveto
            -250 143 -134 203 vhcurveto
            118 217 rmoveto
            -114 -75 77 136 27 3 27 6 37 hvcurveto
            1 6 16 87 2 9 rrcurveto
            165 31 98 80 104 hhcurveto
            125 66 -91 -117 -24 -2 -26 -5 -28 hvcurveto
            -18 -96 rlineto
            -192 -35 -81 -77 -122 hhcurveto
            return
          </CharString>
          <CharString index="81">
            112 callsubr
            -25 -134 rlineto
            622 hlineto
            -152 -314 rmoveto
            67 49 52 64 64 -49 52 -67 -67 -50 -52 -64 -33 callsubr
            hvcurveto
            -372 hmoveto
            66 -31 callgsubr
            -66 -67 -50 -52 -64 -33 callsubr
            hvcurveto
            endchar
          </CharString>
          <CharString index="82">
            rmoveto
            204 hlineto
            283 192 rlineto
            -244 hlineto
            -445 -365 rmoveto
            -64 50 -53 67 66 50 53 64 64 -50 53 -66 -67 -50 -53 95 callgsubr
            -53 67 67 49 53 64 64 -49 53 -67 -67 -50 -53 -64 vhcurveto
            return
          </CharString>
          <CharString index="83">
            365 1034 -16 rmoveto
            227 146 154 313 56 hvcurveto
            13 71 7 78 70 vvcurveto
            145 -38 145 -59 103 vhcurveto
            -257 hlineto
            71 -150 27 -125 -129 vvcurveto
            -56 -2 -57 -14 -81 vhcurveto
            -190 -31 -70 -74 -94 hhcurveto
            -73 -40 43 91 20 0 21 4 24 hvcurveto
            61 361 rlineto
            -241 hlineto
            -64 -372 rlineto
            -133 -23 -63 -55 -72 hhcurveto
            -95 -40 41 124 17 4 54 9 50 hvcurveto
            38 233 85 174 144 169 rrcurveto
            -281 hlineto
            -121 -137 -73 -164 -32 -182 rrcurveto
            -19 -104 -6 -63 -46 vvcurveto
            -233 107 -150 223 144 90 62 158 74 vhcurveto
            11 hlineto
            -135 15 96 -85 156 hhcurveto
            return
          </CharString>
          <CharString index="84">
            75 hvcurveto
            401 hmoveto
            76 return
          </CharString>
          <CharString index="85">
            133 1232 84 callgsubr
            -163 hhcurveto
            -158 -122 96 194 20 2 30 3 22 hvcurveto
            2 1 2 1 vvcurveto
            486 hlineto
            35 212 rlineto
            -489 hlineto
            1 5 12 57 2 5 rrcurveto
            181 40 105 107 168 hhcurveto
            169 84 -112 -106 7 hvcurveto
            1 -6 0 -9 -5 vvcurveto
            261 hlineto
            2 13 1 20 10 vvcurveto
            219 -189 215 -334 120 callsubr
            -36 -188 rlineto
            -9 -50 -3 -63 -37 vvcurveto
            -369 229 -177 309 338 163 193 220 42 vhcurveto
            return
          </CharString>
          <CharString index="86">
            -55 callsubr
            260 99 rmoveto
            2 11 15 3 25 hhcurveto
            57 31 -22 -39 -27 -20 -25 -32 -12 hvcurveto
            64 -79 rlineto
            67 27 58 61 76 vvcurveto
            100 -75 40 -118 -27 -30 -4 -5 -16 vhcurveto
            endchar
          </CharString>
          <CharString index="87">
            -29 callgsubr
            266 80 callgsubr
            return
          </CharString>
          <CharString index="88">
            -46 callgsubr
            rmoveto
            return
          </CharString>
          <CharString index="89">
            rmoveto
            -53 -42 41 53 53 42 40 53 53 42 -40 -53 -53 -41 -41 -54 hvcurveto
            -3 -117 rmoveto
            118 98 88 123 117 -90 93 -120 -117 -99 -88 -123 -117 90 -93 120 hvcurveto
            153 508 rmoveto
            245 187 rlineto
            -246 hlineto
            -201 -187 rlineto
            endchar
          </CharString>
          <CharString index="90">
            -185 126 -135 171 91 80 39 46 40 vhcurveto
            28 hlineto
            -148 -38 -146 -98 -171 hhcurveto
            -16 -21 1 2 -14 hvcurveto
            -24 -127 rlineto
            -3 20 32 -2 29 hhcurveto
            299 228 208 317 272 -166 157 -203 -194 -151 -142 -202 hvcurveto
            return
          </CharString>
          <CharString index="91">
            240 -18 callgsubr
            return
          </CharString>
          <CharString index="92">
            rmoveto
            150 154 80 159 31 209 28 195 -29 203 -74 123 rrcurveto
            -224 hlineto
            66 -172 19 -166 -25 -186 -31 -199 -101 -216 -111 -104 rrcurveto
            endchar
          </CharString>
          <CharString index="93">
            -26 rmoveto
            304 205 227 278 237 -174 168 -228 -141 -111 -70 -86 -51 hvcurveto
            -17 hlineto
            244 25 124 196 187 hhcurveto
            109 83 -68 -83 8 hvcurveto
            245 hlineto
            1 7 0 8 12 vvcurveto
            197 -7 -183 148 -234 hhcurveto
            -240 -187 -129 -226 -108 hvcurveto
            -63 -128 -37 -175 -182 vvcurveto
            -346 178 -229 312 vhcurveto
            21 718 rmoveto
            134 93 -96 -131 -152 -98 -118 -143 -131 -97 108 137 138 102 114 140 hvcurveto
            endchar
          </CharString>
          <CharString index="94">
            rmoveto
            164 101 149 196 7 hvcurveto
            -182 hlineto
            -63 -8 -28 -66 -73 hhcurveto
            -57 -40 40 44 -47 hvcurveto
            49 -54 -62 53 -100 hhcurveto
            -173 -96 -155 -194 -3 hvcurveto
            181 hlineto
            70 9 36 65 65 hhcurveto
            54 43 -46 -47 53 hvcurveto
            -46 52 63 -49 95 hhcurveto
            -103 -459 rmoveto
            164 101 148 196 7 hvcurveto
            -182 hlineto
            -62 -8 -28 -66 -72 hhcurveto
            -57 -41 40 43 -47 hvcurveto
            49 -54 -62 53 -100 hhcurveto
            -173 -96 -154 -195 -3 hvcurveto
            181 hlineto
            71 10 36 65 64 hhcurveto
            54 43 -47 -47 53 hvcurveto
            -45 52 64 -49 94 hhcurveto
            endchar
          </CharString>
          <CharString index="95">
            1391 rmoveto
            -299 -208 -220 -274 -241 172 -170 227 139 120 72 84 45 hvcurveto
            13 hlineto
            -264 -33 -109 -178 -178 hhcurveto
            -109 -97 58 97 -2 hvcurveto
            -247 hlineto
            -10 0 -12 -14 vvcurveto
            -183 9 175 -160 260 hhcurveto
            265 173 160 269 87 hvcurveto
            56 134 20 145 157 vvcurveto
            339 -171 211 -308 vhcurveto
            -21 -708 rmoveto
            -130 -88 96 129 143 98 120 136 131 91 -102 -136 -137 -99 -113 -139 hvcurveto
            endchar
          </CharString>
          <CharString index="96">
            13 callgsubr
            -29 -27 -33 callgsubr
            -63 1387 rmoveto
            -87 66 -57 95 103 69 61 90 87 -65 58 -97 -100 -71 -62 -90 vhcurveto
            return
          </CharString>
          <CharString index="97">
            hvcurveto
            -101 -577 42 callsubr
            99 563 rlineto
            return
          </CharString>
          <CharString index="98">
            241 -18 callgsubr
            return
          </CharString>
          <CharString index="99">
            1007 318 rmoveto
            -251 hlineto
            -68 -17 -64 -49 -107 hhcurveto
            -137 -68 84 135 1 hvcurveto
            10 1 10 1 11 vhcurveto
            356 hlineto
            29 168 rlineto
            -361 hlineto
            3 5 27 1 3 vhcurveto
            136 27 91 77 113 hhcurveto
            124 60 -80 -70 1 hvcurveto
            -1 0 -8 -1 vvcurveto
            250 hlineto
            3 0 9 5 vvcurveto
            220 -185 140 -248 -242 -199 -130 -283 -48 vhcurveto
            -22 -124 rlineto
            -9 -49 -4 -54 -41 vvcurveto
            -260 174 -161 274 231 192 114 224 31 vhcurveto
            return
          </CharString>
          <CharString index="100">
            34 833 596 rmoveto
            36 214 rlineto
            -169 hlineto
            -119 -69 55 101 125 99 84 149 143 77 -88 -111 -14 hvcurveto
            251 hlineto
            240 26 -130 175 -354 hhcurveto
            -283 -226 -170 -246 -137 82 -91 134 -23 hvcurveto
            -3 -15 rlineto
            -214 -22 -147 -148 -195 vvcurveto
            -234 181 -137 302 324 190 172 251 54 vhcurveto
            -248 hlineto
            -117 -28 -120 -86 -160 hhcurveto
            -140 -83 67 111 123 101 102 190 hvcurveto
            return
          </CharString>
          <CharString index="101">
            900 rmoveto
            310 -221 183 -288 -2 vhcurveto
            -303 -2 -212 -206 -284 vvcurveto
            -258 177 -169 218 87 58 27 26 31 vhcurveto
            22 hlineto
            -2 -3 -35 -36 -32 -39 -45 -55 -371 -350 -46 -42 rrcurveto
            356 hlineto
            48 50 269 261 45 67 150 166 93 165 1 191 rrcurveto
            -515 -250 rmoveto
            -149 -109 109 145 147 112 114 153 147 109 -108 -146 -147 -112 -114 -151 hvcurveto
            endchar
          </CharString>
          <CharString index="102">
            rmoveto
            35 206 rlineto
            -704 -20 callsubr
            return
          </CharString>
          <CharString index="103">
            hlineto
            -42 callsubr
            return
          </CharString>
          <CharString index="104">
            -42 439 hmoveto
            -43 31 callsubr
            -49 hhcurveto
            -35 119 callsubr
            25 59 -14 70 hhcurveto
            122 callsubr
            129 11 hvcurveto
            1 7 0 7 6 vvcurveto
            96 -70 53 -99 2 vhcurveto
            33 119 rlineto
            374 hlineto
            39 231 rlineto
            119 callgsubr
            35 213 rlineto
            -569 hlineto
            63 334 rlineto
            601 hlineto
            39 231 rlineto
            -873 -97 callgsubr
            return
          </CharString>
          <CharString index="105">
            rmoveto
            130 10 75 59 27 151 42 234 rcurveline
            127 23 50 69 168 hhcurveto
            42 hlineto
            33 199 rlineto
            -93 hlineto
            -253 -161 -69 -283 -51 hvcurveto
            -35 -188 rlineto
            -137 -25 -44 -61 -131 hhcurveto
            -43 -251 rlineto
            133 22 -63 -134 -24 hvcurveto
            -32 -166 -10 -82 -13 vvcurveto
            -213 -23 104 -90 257 hhcurveto
            101 hlineto
            33 198 rlineto
            -42 hlineto
            -157 -28 37 124 11 hvcurveto
            11 13 82 36 186 vhcurveto
            24 143 -63 80 -114 11 rrcurveto
            endchar
          </CharString>
          <CharString index="106">
            -67 -50 -52 -64 vhcurveto
            return
          </CharString>
          <CharString index="107">
            rmoveto
            -73 52 -50 75 76 52 50 73 72 -52 50 -76 -75 -52 -50 -72 vhcurveto
            401 hmoveto
            -73 52 -50 75 76 52 50 73 72 -52 50 -76 -75 -52 -50 -72 vhcurveto
            -158 215 rmoveto
            180 hlineto
            314 353 rlineto
            -222 hlineto
            endchar
          </CharString>
          <CharString index="108">
            rmoveto
            157 hlineto
            353 338 rlineto
            -231 hlineto
            72 -338 rmoveto
            159 hlineto
            351 338 rlineto
            -229 hlineto
            endchar
          </CharString>
          <CharString index="109">
            -122 688 42 callgsubr
            return
          </CharString>
          <CharString index="110">
            -45 callsubr
            endchar
          </CharString>
          <CharString index="111">
            rmoveto
            -53 -42 41 52 53 42 40 53 53 42 -40 -53 -53 -41 -40 -54 hvcurveto
            -3 -118 rmoveto
            118 98 89 123 117 -90 93 -120 -117 -99 -89 -122 -117 90 -94 120 hvcurveto
            endchar
          </CharString>
          <CharString index="112">
            264 hlineto
            255 1437 -7 callgsubr
            return
          </CharString>
          <CharString index="113">
            rmoveto
            -1 -9 -1 -10 -8 vvcurveto
            -112 111 -89 153 182 130 95 133 27 vhcurveto
            -142 hlineto
            -61 -17 -68 -47 -89 hhcurveto
            -90 -52 43 62 -1 hvcurveto
            3 vlineto
            285 37 rmoveto
            112 70 95 106 5 hvcurveto
            -126 hlineto
            -50 -4 -20 -39 -40 -64 -14 97 -134 hhcurveto
            -116 -61 -95 -91 -7 hvcurveto
            126 hlineto
            37 4 21 33 42 69 10 -93 127 hhcurveto
            endchar
          </CharString>
          <CharString index="114">
            243 hlineto
            432 666 510 699 118 callgsubr
            -432 -655 rlineto
            return
          </CharString>
          <CharString index="115">
            -13 -44 hvcurveto
            -2 0 -2 -2 vvcurveto
            -49 -3 return
          </CharString>
          <CharString index="116">
            -272 3 callgsubr
            return
          </CharString>
          <CharString index="117">
            rmoveto
            -2 -10 -1 -10 -8 vvcurveto
            -117 116 -93 158 188 135 99 139 27 vhcurveto
            -146 hlineto
            -64 -17 -71 -50 -92 hhcurveto
            -95 -53 46 65 -2 hvcurveto
            3 vlineto
            16 121 rmoveto
            4 11 18 4 24 hhcurveto
            52 31 -15 -33 -26 -23 -25 -28 -8 hvcurveto
            55 -73 rlineto
            68 20 61 71 67 vvcurveto
            77 -64 44 -115 -27 -28 -5 -4 -15 vhcurveto
            endchar
          </CharString>
          <CharString index="118">
            -83 callgsubr
            546 -631 rmoveto
            171 29 -110 121 -205 hhcurveto
            -224 -134 -117 -175 -27 hvcurveto
            157 hlineto
            91 17 66 61 122 hhcurveto
            118 49 -61 -91 -16 hvcurveto
            endchar
          </CharString>
          <CharString index="119">
            774 206 rmoveto
            -414 hlineto
            2 12 62 70 35 118 58 260 rlinecurve
            44 191 rlineto
            331 hlineto
            -749 -1142 rmoveto
            50 285 rlineto
            736 115 callsubr
            230 hlineto
            84 72 callgsubr
            -824 hlineto
            -83 -392 -66 -299 -39 -115 -89 -51 rlinecurve
            -89 hlineto
            -85 -491 rlineto
            endchar
          </CharString>
          <CharString index="120">
            1579 -101 callgsubr
            return
          </CharString>
          <CharString index="121">
            201 1135 rlineto
            594 hlineto
            40 230 66 callgsubr
            return
          </CharString>
          <CharString index="122">
            -19 callsubr
            -229 -286 -243 -310 -196 -291 -35 -226 rcurveline
            649 hlineto
            -45 -252 rlineto
            252 hlineto
            45 252 rlineto
            200 hlineto
            36 220 rlineto
            -199 hlineto
            155 893 rlineto
            -806 -893 rmoveto
            1 10 150 216 191 242 165 206 rlinecurve
            16 hlineto
            -124 -674 rlineto
            endchar
          </CharString>
          <CharString index="123">
            rmoveto
            34 201 rlineto
            -411 hlineto
            127 223 rlineto
            323 hlineto
            35 202 rlineto
            -251 hlineto
            140 258 rlineto
            -233 hlineto
            -139 -258 rlineto
            -446 hlineto
            -35 -202 rlineto
            373 hlineto
            -126 -223 rlineto
            -287 hlineto
            -34 -201 rlineto
            212 hlineto
            -130 -238 rlineto
            232 hlineto
            131 238 rlineto
            endchar
          </CharString>
          <CharString index="124">
            hvcurveto
            -21 -123 rlineto
            -9 24 59 -14 return
          </CharString>
          <CharString index="125">
            1541 rmoveto
            189 hlineto
            304 355 rlineto
            -204 hlineto
            -169 -220 rlineto
            -11 hlineto
            -102 220 rlineto
            -196 hlineto
            38 -688 rmoveto
            76 52 50 73 72 -52 50 -76 -75 -52 -50 -72 -73 52 -50 -23 callsubr
            52 50 73 72 -52 50 -76 -75 -52 -50 -72 -73 52 -50 75 hvcurveto
            endchar
          </CharString>
          <CharString index="126">
            rmoveto
            -233 hlineto
            -153 -111 rlineto
            -7 hlineto
            -106 111 rlineto
            -219 hlineto
            221 -198 rlineto
            194 hlineto
            -303 -284 rmoveto
            66 -31 callgsubr
            -66 -67 -50 -52 -64 -33 callsubr
            hvcurveto
            372 hmoveto
            67 49 52 64 64 -49 52 -67 -67 -50 -52 -64 -33 callsubr
            hvcurveto
            endchar
          </CharString>
          <CharString index="127">
            -95 callgsubr
            -184 368 -75 callsubr
          </CharString>
          <CharString index="128">
            hmoveto
            97 540 rlineto
            549 hlineto
            38 224 rlineto
            -549 hlineto
            68 371 rlineto
            599 hlineto
            39 230 rlineto
            -871 hlineto
            -242 -75 callgsubr
            return
          </CharString>
          <CharString index="129">
            rlineto
            271 -9 callgsubr
            return
          </CharString>
          <CharString index="130">
            88 740 hmoveto
            692 -18 callgsubr
            -298 hlineto
            -506 -1083 rlineto
            -14 hlineto
            -121 1083 rlineto
            -296 hlineto
            216 -75 callgsubr
            return
          </CharString>
          <CharString index="131">
            -71 205 73 callgsubr
            62 callgsubr
            -24 -43 -5 -39 hhcurveto
            -84 -40 29 72 return
          </CharString>
          <CharString index="132">
            669 rmoveto
            12 hlineto
            166 -549 rlineto
            163 hlineto
            361 549 rlineto
            12 hlineto
            -119 -669 rlineto
            247 -4 callsubr
            -303 hlineto
            -408 -639 rlineto
            -12 hlineto
            -181 639 rlineto
            -300 -29 callgsubr
            244 hlineto
            endchar
          </CharString>
          <CharString index="133">
            rrcurveto
            -251 hlineto
            -69 -18 -71 -47 -105 hhcurveto
            -149 -58 94 106 27 4 36 5 21 hvcurveto
            673 hlineto
            9 46 15 96 10 vvcurveto
            248 19 -147 209 -296 hhcurveto
            -249 -203 -141 -280 -49 hvcurveto
            -20 -110 rlineto
            -8 -42 -7 -53 -53 vvcurveto
            return
          </CharString>
          <CharString index="134">
            1366 rmoveto
            -283 hlineto
            -601 -885 -41 -234 rlineto
            625 hlineto
            -46 -247 rlineto
            252 hlineto
            45 247 rlineto
            181 hlineto
            38 232 rlineto
            -185 hlineto
            61 344 rlineto
            -244 hlineto
            -60 -339 rlineto
            -330 hlineto
            2 8 rlineto
            endchar
          </CharString>
          <CharString index="135">
            112 callsubr
            -26 -134 rlineto
            623 hlineto
            -180 244 rmoveto
            -207 193 rlineto
            -226 hlineto
            251 -193 rlineto
            endchar
          </CharString>
          <CharString index="136">
            29 72 18 3 22 11 59 hvcurveto
            return
          </CharString>
          <CharString index="137">
            rmoveto
            369 hlineto
            35 207 rlineto
            -369 hlineto
            41 233 rlineto
            -232 hlineto
            -42 -233 rlineto
            -364 hlineto
            -36 -207 rlineto
            365 hlineto
            -45 -249 rlineto
            233 hlineto
            323 -299 rmoveto
            34 200 rlineto
            -966 hlineto
            -34 -200 rlineto
            endchar
          </CharString>
          <CharString index="138">
            -158 -10 -75 rlineto
            53 hlineto
            76 47 -13 -44 -2 0 -2 -1 -2 hvcurveto
            -49 -2 -52 -9 return
          </CharString>
          <CharString index="139">
            rmoveto
            188 hlineto
            146 135 rlineto
            -226 hlineto
            -45 -532 rmoveto
            103 80 75 103 102 -80 74 -103 -103 -80 -74 -102 -103 81 -75 102 hvcurveto
            -78 177 rmoveto
            44 34 33 44 45 34 -33 -44 -43 -34 -34 -45 -44 -34 34 43 vhcurveto
            endchar
          </CharString>
          <CharString index="140">
            rmoveto
            177 hlineto
            315 353 rlineto
            -220 hlineto
            114 -644 rmoveto
            28 141 rlineto
            113 callsubr
            endchar
          </CharString>
          <CharString index="141">
            32 callgsubr
            122 callsubr
            return
          </CharString>
          <CharString index="142">
            265 -4 callsubr
            -922 -20 callsubr
            391 hlineto
            endchar
          </CharString>
          <CharString index="143">
            rmoveto
            182 hlineto
            -198 352 rlineto
            -227 hlineto
            629 -502 rmoveto
            113 callsubr
            627 hlineto
            endchar
          </CharString>
          <CharString index="144">
            122 callsubr
            129 10 hvcurveto
            1 7 1 7 6 vvcurveto
            96 -71 53 -99 2 vhcurveto
            return
          </CharString>
          <CharString index="145">
            rmoveto
            -31 -187 123 callsubr
            -3 -11 -450 -677 rlineto
            264 hlineto
            444 690 31 185 rlineto
            endchar
          </CharString>
          <CharString index="146">
            rmoveto
            -227 hlineto
            -159 -122 rlineto
            -7 hlineto
            -112 122 rlineto
            -212 hlineto
            221 -216 rlineto
            194 hlineto
            -155 346 rmoveto
            -56 46 -46 58 57 46 46 56 56 -46 46 -57 -58 -46 -46 -56 vhcurveto
            endchar
          </CharString>
          <CharString index="147">
            rmoveto
            184 -354 rlineto
            192 hlineto
            309 354 rlineto
            -210 hlineto
            -168 -219 rlineto
            -9 hlineto
            -95 219 rlineto
            159 35 rmoveto
            72 59 58 73 74 -59 58 -72 -72 -59 -58 -74 -73 59 -58 72 hvcurveto
            endchar
          </CharString>
          <CharString index="148" raw="1">
            f7621568 fb62050b  
          </CharString>
          <CharString index="149">
            rlineto
            265 hlineto
            return
          </CharString>
          <CharString index="150">
            35 200 rlineto
            -5 return
          </CharString>
          <CharString index="151">
            rmoveto
            -135 184 -354 -283 -246 312 -178 -149 245 -312 -343 -282 134 -184 344 282 249 -317 178 150 -249 316 rlineto
            endchar
          </CharString>
          <CharString index="152">
            hmoveto
            -16 callsubr
            return
          </CharString>
          <CharString index="153">
            rmoveto
            -210 -183 -229 -400 -557 vvcurveto
            -233 69 -241 80 -136 vhcurveto
            252 hlineto
            -76 148 -55 187 288 vvcurveto
            586 268 402 150 139 vhcurveto
            endchar
          </CharString>
          <CharString index="154">
            -634 131 -388 rmoveto
            311 617 rlineto
            -283 hlineto
            -242 -617 rlineto
            294 1196 rmoveto
            -104 78 -67 96 99 78 67 104 106 -77 69 -100 -97 -77 -68 -107 vhcurveto
            endchar
          </CharString>
          <CharString index="155">
            rmoveto
            906 -314 40 227 -551 169 2 10 613 176 39 230 -1021 -334 rlineto
            836 -764 rmoveto
            35 205 rlineto
            -971 hlineto
            -35 -205 rlineto
            endchar
          </CharString>
          <CharString index="156">
            rmoveto
            28 164 -904 334 -38 -230 549 -176 -2 -10 -612 -169 -39 -227 rlineto
            923 -286 rmoveto
            35 205 rlineto
            -971 hlineto
            -35 -205 rlineto
            endchar
          </CharString>
          <CharString index="157">
            rlineto
            -228 hlineto
            return
          </CharString>
          <CharString index="158">
            -1299 -97 callsubr
          </CharString>
          <CharString index="159">
            rmoveto
            1 5 4 24 1 6 rrcurveto
            -258 hlineto
            -113 -23 -88 -92 return
          </CharString>
          <CharString index="160">
            -265 hlineto
            -190 -1073 rlineto
            -89 -16 -58 -52 -90 hhcurveto
            -30 -26 3 5 -18 hvcurveto
            -39 -209 rlineto
            -5 25 54 -7 37 hhcurveto
            251 132 112 243 43 hvcurveto
            return
          </CharString>
          <CharString index="161">
            rmoveto
            169 30 -96 142 -205 hhcurveto
            -216 -113 -145 -166 -29 hvcurveto
            158 hlineto
            95 16 61 73 110 hhcurveto
            109 34 -73 -95 -16 hvcurveto
            -496 return
          </CharString>
          <CharString index="162" raw="1">
            5c271b76 748c8e7d 1f68fb5e 05889e0b
          </CharString>
          <CharString index="163">
            -75 -52 -50 -73 return
          </CharString>
          <CharString index="164">
            rmoveto
            -69 callsubr
            return
          </CharString>
          <CharString index="165">
            rmoveto
            207 hlineto
            366 321 rlineto
            -252 hlineto
            -579 -128 rmoveto
            -73 57 -58 71 72 57 58 73 72 -57 59 -72 -71 -57 -59 -72 vhcurveto
            endchar
          </CharString>
          <CharString index="166">
            rmoveto
            176 hlineto
            323 352 rlineto
            -218 hlineto
            -395 -249 rmoveto
            72 58 58 74 73 -58 58 -72 -72 -59 -58 -73 -74 59 -58 72 hvcurveto
            endchar
          </CharString>
          <CharString index="167">
            rmoveto
            44 217 rlineto
            -630 hlineto
            -43 -217 rlineto
            endchar
          </CharString>
          <CharString index="168">
            hhcurveto
            -315 -230 -188 -334 return
          </CharString>
          <CharString index="169">
            -39 -27 vvcurveto
            -151 return
          </CharString>
          <CharString index="170">
            -19 callsubr
            -35 -224 rlineto
            644 hlineto
            -2 -16 -733 -1125 rlineto
            300 hlineto
            729 1148 33 217 rlineto
            endchar
          </CharString>
          <CharString index="171">
            rmoveto
            -309 -1750 rlineto
            541 hlineto
            35 201 rlineto
            -291 hlineto
            241 1348 rlineto
            289 hlineto
            35 201 rlineto
            endchar
          </CharString>
          <CharString index="172">
            rlineto
            272 hlineto
            return
          </CharString>
          <CharString index="173">
            -139 hlineto
            59 334 rlineto
            return
          </CharString>
          <CharString index="174">
            rmoveto
            36 230 rlineto
            -929 hlineto
            -38 -230 rlineto
            1004 443 rmoveto
            39 231 rlineto
            -928 hlineto
            -39 -231 rlineto
            endchar
          </CharString>
          <CharString index="175">
            rmoveto
            85 72 callgsubr
            -265 hlineto
            101 callsubr
            rlineto
            -391 80 callgsubr
            return
          </CharString>
          <CharString index="176">
            rmoveto
            -773 511 -46 -262 519 -319 -2 -12 -632 -312 -46 -273 951 489 rlineto
            endchar
          </CharString>
          <CharString index="177">
            -178 -24 -1 -57 -8 -43 hvcurveto
            return
          </CharString>
          <CharString index="178">
            -16 rmoveto
            320 185 219 256 214 -149 167 -272 -123 -102 -45 -54 -59 hvcurveto
            -12 hlineto
            return
          </CharString>
          <CharString index="179">
            -5 -48 -4 -24 hvcurveto
            -103 -582 rlineto
            return
          </CharString>
          <CharString index="180">
            321 rlineto
            -226 hlineto
            return
          </CharString>
          <CharString index="181">
            rmoveto
            -236 -154 -173 -247 -46 hvcurveto
            -28 -131 rlineto
            -9 -45 -2 -50 -49 vvcurveto
            -244 return
          </CharString>
          <CharString index="182">
            95 callsubr
            39 228 104 callgsubr
            return
          </CharString>
          <CharString index="183">
            rmoveto
            -107 79 -68 99 102 79 68 107 108 -79 70 -102 -99 -79 -69 -109 vhcurveto
            endchar
          </CharString>
          <CharString index="184" raw="1">
            fb770526 795cc20a 0b 
          </CharString>
          <CharString index="185">
            vvcurveto
            345 -174 190 -285 -307 -194 -222 -367 -62 vhcurveto
            endchar
          </CharString>
          <CharString index="186" raw="1">
            d315fb7a 064cfbf9 05f77a06 0b
          </CharString>
          <CharString index="187">
            rlineto
            -262 hlineto
            -36 -207 rlineto
            -17 hlineto
            110 -18 -113 110 -171 hhcurveto
            return
          </CharString>
          <CharString index="188">
            114 callsubr
            -271 hlineto
            -200 110 callsubr
            -563 hlineto
            return
          </CharString>
          <CharString index="189">
            hhcurveto
            -34 -56 6 11 -32 hvcurveto
            -21 -123 rlineto
            return
          </CharString>
          <CharString index="190">
            hmoveto
            265 hlineto
            return
          </CharString>
          <CharString index="191">
            337 -19 callsubr
            -63 -560 rlineto
            218 hlineto
            133 560 rlineto
            return
          </CharString>
          <CharString index="192" raw="1">
            271b7675 8c8e7c1f 6afb5905 879ec087
            af1b0b   
          </CharString>
          <CharString index="193">
            rmoveto
            -190 1728 rlineto
            -237 hlineto
            190 -1728 rlineto
            endchar
          </CharString>
          <CharString index="194">
            rlineto
            -223 hlineto
            return
          </CharString>
          <CharString index="195" raw="1">
            fb81f97e f8fc15fd 17066ffb 3205f918
            060b   
          </CharString>
          <CharString index="196">
            hlineto
            202 1132 rlineto
            -272 hlineto
            return
          </CharString>
          <CharString index="197">
            85 491 rlineto
            return
          </CharString>
          <CharString index="198" raw="1">
            f8d4969d aaf74405 fb0f066c fb448f79
            0b   
          </CharString>
          <CharString index="199">
            -108 118 callsubr
          </CharString>
          <CharString index="200">
            rlineto
            -255 hlineto
            return
          </CharString>
          <CharString index="201">
            rmoveto
            122 callsubr
            129 10 hvcurveto
            2 7 0 7 6 vvcurveto
            return
          </CharString>
          <CharString index="202">
            217 rlineto
            -1848 hlineto
            return
          </CharString>
          <CharString index="203">
            -9 -50 hhcurveto
            -34 -55 return
          </CharString>
          <CharString index="204">
            207 258 305 229 -136 175 -248 return
          </CharString>
          <CharString index="205">
            hlineto
            101 callsubr
            rlineto
            -307 80 callgsubr
            return
          </CharString>
          <CharString index="206">
            rmoveto
            41 237 rlineto
            -966 hlineto
            -40 -237 rlineto
            endchar
          </CharString>
          <CharString index="207">
            rlineto
            -257 hlineto
            return
          </CharString>
          <CharString index="208">
            -152 -857 return
          </CharString>
          <CharString index="209">
            rlineto
            9 callsubr
            return
          </CharString>
          <CharString index="210">
            106 callgsubr
            40 95 callsubr
            return
          </CharString>
          <CharString index="211">
            482 rlineto
            -229 hlineto
            -151 -889 rlineto
            endchar
          </CharString>
          <CharString index="212">
            457 820 rmoveto
            return
          </CharString>
          <CharString index="213">
            258 hlineto
            112 return
          </CharString>
          <CharString index="214">
            rlineto
            386 hlineto
            return
          </CharString>
          <CharString index="215">
            hlineto
            31 168 rlineto
            -271 hlineto
            -31 -168 rlineto
            return
          </CharString>
          <CharString index="216">
            rmoveto
            656 382 -523 383 rlineto
            endchar
          </CharString>
          <CharString index="217">
            -1132 rlineto
            return
          </CharString>
          <CharString index="218">
            -26 -142 rlineto
            return
          </CharString>
          <CharString index="219">
            rmoveto
            -623 hlineto
            return
          </CharString>
          <CharString index="220">
            -627 hlineto
            -28 -141 rlineto
            return
          </CharString>
          <CharString index="221">
            hlineto
            201 1132 rlineto
            return
          </CharString>
          <CharString index="222">
            hlineto
            -50 -285 rlineto
            return
          </CharString>
          <CharString index="223">
            hlineto
            -34 -198 rlineto
            return
          </CharString>
          <CharString index="224">
            rlineto
            -149 -27 return
          </CharString>
          <CharString index="225">
            140 hhcurveto
            endchar
          </CharString>
          <CharString index="226">
            -55 6 11 -32 hvcurveto
            -22 -123 rlineto
            -9 return
          </CharString>
          <CharString index="227">
            -316 -218 -195 -337 -61 vhcurveto
            return
          </CharString>
          <CharString index="228" raw="1">
            15fdb2fb c770fb33 f9b10b 
          </CharString>
          <CharString index="229">
            148 105 64 return
          </CharString>
          <CharString index="230">
            rlineto
            390 hlineto
            return
          </CharString>
          <CharString index="231">
            -244 rlineto
            endchar
          </CharString>
        <CharString name=".notdef">
          843 -60 -494 103 callsubr
          38 228 103 callsubr
          39 229 rmoveto
          1848 hlineto
          39 75 callsubr
          39 229 rmoveto
          1848 hlineto
          40 75 callsubr
          endchar
        </CharString>
        <CharString name=".null">
          endchar
        </CharString>
        <CharString name="A">
          99 -38 -103 callgsubr
          endchar
        </CharString>
        <CharString name="AE">
          685 1002 -41 callsubr
          endchar
        </CharString>
        <CharString name="AEacute">
          685 1002 -41 callsubr
          521 1171 -74 callgsubr
        </CharString>
        <CharString name="AEmacron">
          685 1002 -41 callsubr
          988 1301 -48 callsubr
        </CharString>
        <CharString name="Aacute">
          99 -38 -103 callgsubr
          -53 406 -74 callgsubr
        </CharString>
        <CharString name="Abreve">
          99 -38 -103 callgsubr
          -217 667 -72 callgsubr
          endchar
        </CharString>
        <CharString name="Abreveacute">
          99 -38 -103 callgsubr
          -208 635 -5 callgsubr
          59 15 rmoveto
          168 hlineto
          222 197 rlineto
          -212 hlineto
          endchar
        </CharString>
        <CharString name="Abrevedotbelow">
          99 -38 -103 callgsubr
          -217 667 -72 callgsubr
          -298 -2000 -97 callsubr
        </CharString>
        <CharString name="Abrevegrave">
          99 -38 -103 callgsubr
          -208 635 -5 callgsubr
          255 15 rmoveto
          -125 197 rlineto
          -208 hlineto
          165 -197 rlineto
          endchar
        </CharString>
        <CharString name="Abrevehookabove">
          99 -38 -103 callgsubr
          -200 611 10 callsubr
        </CharString>
        <CharString name="Abrevetilde">
          99 -38 -103 callgsubr
          -190 601 6 callsubr
        </CharString>
        <CharString name="Acaron">
          99 -38 -103 callgsubr
          480 638 -85 callgsubr
          endchar
        </CharString>
        <CharString name="Acircumflex">
          99 -38 -103 callgsubr
          -290 392 -79 callsubr
          endchar
        </CharString>
        <CharString name="Acircumflexacute">
          15 callgsubr
          323 -53 rmoveto
          174 hlineto
          277 242 rlineto
          -221 hlineto
          endchar
        </CharString>
        <CharString name="Acircumflexdotbelow">
          99 -38 -103 callgsubr
          -290 392 -79 callsubr
          -357 -1968 -97 callsubr
        </CharString>
        <CharString name="Acircumflexgrave">
          15 callgsubr
          584 -55 rmoveto
          -176 244 rlineto
          -207 hlineto
          211 124 callsubr
        </CharString>
        <CharString name="Acircumflexhookabove">
          15 callgsubr
          260 99 rmoveto
          2 11 15 3 25 hhcurveto
          57 31 -22 -39 -27 -20 -25 -32 -12 hvcurveto
          64 -79 rlineto
          67 27 58 61 76 vvcurveto
          100 -75 40 -118 -27 -30 -4 -5 -16 vhcurveto
          endchar
        </CharString>
        <CharString name="Acircumflextilde">
          99 -38 -103 callgsubr
          -270 400 -41 callgsubr
        </CharString>
        <CharString name="Acyrillic">
          119 -28 -103 callgsubr
          endchar
        </CharString>
        <CharString name="Adblgrave">
          99 -38 -103 callgsubr
          -11 406 -38 callsubr
          endchar
        </CharString>
        <CharString name="Adieresis">
          99 -38 -103 callgsubr
          -214 481 -101 callgsubr
          endchar
        </CharString>
        <CharString name="Adieresismacron">
          99 -38 -103 callgsubr
          453 813 -26 callsubr
        </CharString>
        <CharString name="Adotaccent">
          99 -38 -103 callgsubr
          -34 517 -78 callgsubr
        </CharString>
        <CharString name="Adotbelow">
          99 -38 -103 callgsubr
          -359 -1333 -97 callsubr
        </CharString>
        <CharString name="Adotmacron">
          99 -38 -103 callgsubr
          -40 472 22 callgsubr
        </CharString>
        <CharString name="Agrave">
          99 -38 -103 callgsubr
          170 406 -31 callsubr
        </CharString>
        <CharString name="Ahookabove">
          99 -38 -103 callgsubr
          -40 612 -63 callsubr
          endchar
        </CharString>
        <CharString name="Ainvertedbreve">
          99 -38 -103 callgsubr
          408 377 -54 callsubr
          endchar
        </CharString>
        <CharString name="Alphagreek">
          99 -38 -103 callgsubr
          endchar
        </CharString>
        <CharString name="Alphatonosgreek">
          215 78 -103 callgsubr
          -684 -116 -29 callsubr
        </CharString>
        <CharString name="Amacron">
          99 -38 -103 callgsubr
          414 536 -48 callsubr
        </CharString>
        <CharString name="Aogonek">
          99 1019 -377 rmoveto
          55 64 11 10 23 hvcurveto
          25 151 rlineto
          -4 -17 -37 -4 -23 hhcurveto
          -71 -33 36 50 2 hvcurveto
          2 85 79 55 102 33 -210 1319 rcurveline
          -324 hlineto
          -694 -1365 107 callgsubr
          169 345 rlineto
          452 hlineto
          40 -318 rlineto
          52 -8 hlineto
          -65 -33 -76 -59 -7 -113 rrcurveto
          -117 -10 92 -74 130 hhcurveto
          -240 1474 rmoveto
          65 -543 rlineto
          -341 hlineto
          260 543 rlineto
          endchar
        </CharString>
        <CharString name="Aring">
          99 -38 -103 callgsubr
          105 484 4 callsubr
        </CharString>
        <CharString name="Aringacute">
          99 -38 -103 callgsubr
          26 710 32 callsubr
        </CharString>
        <CharString name="Aringbelow">
          99 -38 -103 callgsubr
          -229 -1485 -82 callsubr
        </CharString>
        <CharString name="Atilde">
          99 -38 -103 callgsubr
          198 358 -90 callsubr
          endchar
        </CharString>
        <CharString name="B">
          107 95 -80 callgsubr
          endchar
        </CharString>
        <CharString name="Bdotaccent">
          107 95 -80 callgsubr
          314 1409 -78 callgsubr
        </CharString>
        <CharString name="Bdotbelow">
          107 95 -80 callgsubr
          14 -441 -97 callsubr
        </CharString>
        <CharString name="Becyrillic">
          74 616 hmoveto
          339 183 150 237 40 hvcurveto
          6 32 3 35 30 vvcurveto
          218 -155 147 -275 vhcurveto
          -230 hlineto
          52 286 rlineto
          612 hlineto
          40 230 rlineto
          -883 -97 callgsubr
          309 229 rmoveto
          74 407 rlineto
          210 hlineto
          142 73 -64 -104 -17 -2 -23 -5 -18 hvcurveto
          -98 -17 -80 -83 -193 hhcurveto
          endchar
        </CharString>
        <CharString name="Betagreek">
          107 95 -80 callgsubr
          endchar
        </CharString>
        <CharString name="Blinebelow">
          107 95 -80 callgsubr
          433 -547 -82 callgsubr
        </CharString>
        <CharString name="C">
          113 460 816 -92 callgsubr
          endchar
        </CharString>
        <CharString name="Cacute">
          113 460 816 -92 callgsubr
          293 843 -74 callgsubr
        </CharString>
        <CharString name="Ccaron">
          113 460 816 -92 callgsubr
          826 1075 -85 callgsubr
          endchar
        </CharString>
        <CharString name="Ccedilla">
          113 591 -70 callgsubr
          endchar
        </CharString>
        <CharString name="Ccedillaacute">
          113 591 -70 callgsubr
          131 1986 -74 callgsubr
        </CharString>
        <CharString name="Ccircumflex">
          113 460 816 -92 callgsubr
          43 829 -79 callsubr
          endchar
        </CharString>
        <CharString name="Cdotaccent">
          113 460 816 -92 callgsubr
          312 954 -78 callgsubr
        </CharString>
        <CharString name="Checyrillic">
          19 callgsubr
          endchar
        </CharString>
        <CharString name="Chigreek">
          69 1098 1365 -59 callsubr
          endchar
        </CharString>
        <CharString name="D">
          173 -96 callgsubr
          endchar
        </CharString>
        <CharString name="Dcaron">
          173 -96 callgsubr
          851 1504 -85 callgsubr
          endchar
        </CharString>
        <CharString name="Dcircumflexbelow">
          173 -96 callgsubr
          -248 -641 -63 callgsubr
          endchar
        </CharString>
        <CharString name="Dcommaaccent">
          173 -96 callgsubr
          169 -687 -36 callsubr
        </CharString>
        <CharString name="Dcroat">
          -6 callgsubr
        </CharString>
        <CharString name="Ddotaccent">
          173 -96 callgsubr
          337 1383 -78 callgsubr
        </CharString>
        <CharString name="Ddotbelow">
          173 -96 callgsubr
          19 -467 -97 callsubr
        </CharString>
        <CharString name="Decyrillic">
          276 951 233 rmoveto
          -543 hlineto
          3 13 97 105 43 180 63 292 rlinecurve
          66 310 rlineto
          433 hlineto
          -953 -1419 rmoveto
          50 286 rlineto
          900 29 callgsubr
          89 519 rlineto
          -171 114 callsubr
          -943 hlineto
          -104 -503 -78 -374 -43 -170 -132 -85 rlinecurve
          -112 hlineto
          -89 -519 rlineto
          endchar
        </CharString>
        <CharString name="Deltagreek">
          98 1192 147 rmoveto
          -211 1219 rlineto
          -325 hlineto
          -640 -1219 -26 -147 rlineto
          1177 hlineto
          -387 1101 rmoveto
          131 -893 rlineto
          -600 hlineto
          453 893 rlineto
          endchar
        </CharString>
        <CharString name="Djecyrillic">
          363 974 71 callsubr
          72 391 rlineto
          383 hlineto
          39 233 rlineto
          -1042 hlineto
          -40 -233 rlineto
          388 114 callgsubr
          272 hlineto
          90 513 rlineto
          54 53 61 callgsubr
        </CharString>
        <CharString name="Dlinebelow">
          173 -96 callgsubr
          438 -573 -82 callgsubr
        </CharString>
        <CharString name="Dzecyrillic">
          47 103 404 rmoveto
          -103 callsubr
          endchar
        </CharString>
        <CharString name="Dzhecyrillic">
          256 537 hmoveto
          -50 -286 rlineto
          241 hlineto
          50 286 rlineto
          432 -9 callgsubr
          -271 hlineto
          -202 110 callsubr
          -562 89 callsubr
          -241 -1365 rlineto
          endchar
        </CharString>
        <CharString name="E">
          -42 1010 -102 callgsubr
          endchar
        </CharString>
        <CharString name="Eacute">
          -42 1010 -102 callgsubr
          -316 1503 -74 callgsubr
        </CharString>
        <CharString name="Ebreve">
          -42 1010 -102 callgsubr
          -480 1764 -72 callgsubr
          endchar
        </CharString>
        <CharString name="Ecaron">
          -42 1010 -102 callgsubr
          217 1735 -85 callgsubr
          endchar
        </CharString>
        <CharString name="Ecedilla">
          -3 callsubr
          endchar
        </CharString>
        <CharString name="Ecedillabreve">
          -3 callsubr
          396 1764 -72 callgsubr
          endchar
        </CharString>
        <CharString name="Ecircumflex">
          -42 1010 -102 callgsubr
          -553 1489 -79 callsubr
          endchar
        </CharString>
        <CharString name="Ecircumflexacute">
          -42 1010 -102 callgsubr
          -558 1497 -55 callsubr
          323 -53 rmoveto
          174 hlineto
          277 242 rlineto
          -221 hlineto
          endchar
        </CharString>
        <CharString name="Ecircumflexbelow">
          -42 1010 -102 callgsubr
          -882 -410 -63 callgsubr
          endchar
        </CharString>
        <CharString name="Ecircumflexdotbelow">
          -42 1010 -102 callgsubr
          -553 1489 -79 callsubr
          -350 -1968 -97 callsubr
        </CharString>
        <CharString name="Ecircumflexgrave">
          -42 1010 -102 callgsubr
          -558 1497 -55 callsubr
          584 -55 rmoveto
          -176 244 rlineto
          -207 hlineto
          211 124 callsubr
        </CharString>
        <CharString name="Ecircumflexhookabove">
          -42 1010 -102 callgsubr
          -558 1497 -21 callsubr
        </CharString>
        <CharString name="Ecircumflextilde">
          -42 1010 -102 callgsubr
          -533 1497 -41 callgsubr
        </CharString>
        <CharString name="Ecyrillic">
          -22 callsubr
          endchar
        </CharString>
        <CharString name="Edblgrave">
          -42 1010 -102 callgsubr
          -274 1503 -38 callsubr
          endchar
        </CharString>
        <CharString name="Edieresis">
          -42 1010 -102 callgsubr
          -477 1578 -101 callgsubr
          endchar
        </CharString>
        <CharString name="Edotaccent">
          -42 1010 -102 callgsubr
          -297 1614 -78 callgsubr
        </CharString>
        <CharString name="Edotbelow">
          -42 1010 -102 callgsubr
          -615 37 callgsubr
          endchar
        </CharString>
        <CharString name="Efcyrillic">
          455 1104 1239 rmoveto
          24 136 rlineto
          -259 hlineto
          -23 -132 rlineto
          1 -6 -22 0 -6 hhcurveto
          -380 -212 -187 -269 -43 hvcurveto
          -15 -87 rlineto
          -2 -17 -2 -16 -16 vvcurveto
          -22 -258 180 -217 337 -43 -24 -144 rcurveline
          258 hlineto
          24 141 rlineto
          -1 6 22 0 7 hhcurveto
          379 211 187 269 44 hvcurveto
          14 87 rlineto
          3 17 1 16 16 vvcurveto
          23 257 -180 218 -337 42 rrcurveto
          -678 -582 rmoveto
          8 1 9 1 9 vhcurveto
          9 57 30 197 138 83 209 3 rlinecurve
          -120 -670 -178 27 -110 95 20 182 rlinecurve
          902 34 rmoveto
          -8 -57 -30 -197 -139 -83 -208 -4 rlinecurve
          119 670 179 -26 110 -96 -21 -182 rlinecurve
          -8 -1 -8 -1 -9 vhcurveto
          endchar
        </CharString>
        <CharString name="Egrave">
          -42 1010 -102 callgsubr
          -93 1503 -31 callsubr
        </CharString>
        <CharString name="Ehookabove">
          -42 1010 -102 callgsubr
          -303 1709 -63 callsubr
          endchar
        </CharString>
        <CharString name="Einvertedbreve">
          -42 1010 -102 callgsubr
          145 1474 -54 callsubr
          endchar
        </CharString>
        <CharString name="Elcyrillic">
          179 359 862 -48 callgsubr
        </CharString>
        <CharString name="Emacron">
          -42 1010 -102 callgsubr
          151 1633 -48 callsubr
        </CharString>
        <CharString name="Emacronacute">
          -42 1010 -102 callgsubr
          -285 1743 36 callgsubr
        </CharString>
        <CharString name="Emacrongrave">
          -42 1010 -102 callgsubr
          152 1633 28 callsubr
        </CharString>
        <CharString name="Emcyrillic">
          482 353 -70 callsubr
          endchar
        </CharString>
        <CharString name="Encyrillic">
          265 377 hmoveto
          -87 callsubr
          endchar
        </CharString>
        <CharString name="Eogonek">
          -42 767 -376 rmoveto
          51 59 10 10 32 hvcurveto
          26 152 rlineto
          -4 -18 -32 -4 -24 hhcurveto
          -65 -42 31 56 4 hvcurveto
          7 101 120 56 96 21 29 178 rcurveline
          119 callgsubr
          36 213 rlineto
          -569 hlineto
          62 334 rlineto
          601 hlineto
          39 231 rlineto
          -873 -97 callgsubr
          576 -9 hlineto
          -69 -46 -41 -65 -4 -74 rrcurveto
          -126 -8 96 -56 122 hhcurveto
          endchar
        </CharString>
        <CharString name="Epsilongreek">
          -42 1010 -102 callgsubr
          endchar
        </CharString>
        <CharString name="Epsilontonosgreek">
          353 1363 -102 callgsubr
          -1165 981 -29 callsubr
        </CharString>
        <CharString name="Ercyrillic">
          48 376 hmoveto
          -77 callgsubr
          endchar
        </CharString>
        <CharString name="Ereversedcyrillic">
          -93 callsubr
          endchar
        </CharString>
        <CharString name="Escyrillic">
          133 470 816 -92 callgsubr
          endchar
        </CharString>
        <CharString name="Etagreek">
          253 367 hmoveto
          -87 callsubr
          endchar
        </CharString>
        <CharString name="Etatonosgreek">
          640 720 hmoveto
          -87 callsubr
          -289 981 -29 callsubr
        </CharString>
        <CharString name="Eth">
          -6 callgsubr
        </CharString>
        <CharString name="Etilde">
          -42 1010 -102 callgsubr
          -65 1455 -90 callsubr
          endchar
        </CharString>
        <CharString name="Etildebelow">
          -42 1010 -102 callgsubr
          -387 -440 -64 callgsubr
          endchar
        </CharString>
        <CharString name="Euro">
          0 1248 1348 rmoveto
          26 -63 -115 17 -95 hhcurveto
          -327 -252 -168 -310 -99 hvcurveto
          -133 hlineto
          -25 -148 rlineto
          124 hlineto
          -16 -85 -4 -20 -3 -21 -2 -21 rlinecurve
          -126 hlineto
          -26 -148 rlineto
          150 hlineto
          -304 29 271 -192 345 hhcurveto
          39 51 2 6 35 hvcurveto
          38 225 rlineto
          -4 -29 -48 -3 -39 hhcurveto
          -226 -163 93 177 -34 hvcurveto
          400 hlineto
          25 148 rlineto
          -427 hlineto
          2 13 2 14 2 12 19 108 rcurveline
          429 hlineto
          26 148 rlineto
          -413 hlineto
          165 73 148 85 187 hhcurveto
          82 90 -15 -23 59 hvcurveto
          endchar
        </CharString>
        <CharString name="F">
          -72 367 21 callsubr
          endchar
        </CharString>
        <CharString name="Fdotaccent">
          -72 367 21 callsubr
          576 1614 -78 callgsubr
        </CharString>
        <CharString name="G">
          -98 callsubr
          endchar
        </CharString>
        <CharString name="Gacute">
          -98 callsubr
          531 638 -74 callgsubr
        </CharString>
        <CharString name="Gammagreek">
          -92 95 hmoveto
          272 hlineto
          203 1136 rlineto
          579 hlineto
          39 230 rlineto
          -851 hlineto
          endchar
        </CharString>
        <CharString name="Gbreve">
          -98 callsubr
          367 899 -72 callgsubr
          endchar
        </CharString>
        <CharString name="Gcaron">
          -98 callsubr
          1064 870 -85 callgsubr
          endchar
        </CharString>
        <CharString name="Gcircumflex">
          -98 callsubr
          294 624 -79 callsubr
          endchar
        </CharString>
        <CharString name="Gcommaaccent">
          -98 callsubr
          437 -1321 -36 callsubr
        </CharString>
        <CharString name="Gdotaccent">
          -98 callsubr
          550 749 -78 callgsubr
        </CharString>
        <CharString name="Gecyrillic">
          -85 377 hmoveto
          14 callsubr
          endchar
        </CharString>
        <CharString name="Geupturncyrillic">
          -85 971 -19 callsubr
          -625 -97 callgsubr
          270 hlineto
          202 1135 rlineto
          595 hlineto
          90 516 rlineto
          -241 hlineto
          endchar
        </CharString>
        <CharString name="Gjecyrillic">
          -85 377 hmoveto
          14 callsubr
          563 1503 -74 callgsubr
        </CharString>
        <CharString name="Gmacron">
          -98 callsubr
          998 768 -48 callsubr
        </CharString>
        <CharString name="H">
          245 367 hmoveto
          -87 callsubr
          endchar
        </CharString>
        <CharString name="Hardsigncyrillic">
          262 901 698 rmoveto
          139 80 -74 -122 -19 -3 -27 -4 -20 hvcurveto
          -113 -18 -84 -94 -193 hhcurveto
          -197 hlineto
          85 469 rlineto
          -394 -698 rmoveto
          509 hlineto
          339 183 164 251 40 hvcurveto
          6 34 3 37 32 vvcurveto
          235 -155 160 -275 71 callgsubr
          -609 hlineto
          -40 -234 rlineto
          338 hlineto
          endchar
        </CharString>
        <CharString name="Hbar">
          246 508 792 rmoveto
          31 172 rlineto
          571 hlineto
          -31 -172 rlineto
          -610 -232 rmoveto
          571 hlineto
          -97 -560 rlineto
          268 hlineto
          170 964 rlineto
          95 hlineto
          39 233 rlineto
          -95 108 callsubr
          -572 108 callsubr
          -95 hlineto
          -40 -233 rlineto
          96 hlineto
          -170 -964 rlineto
          271 hlineto
          endchar
        </CharString>
        <CharString name="Hbrevebelow">
          245 367 hmoveto
          -87 callsubr
          215 -113 9 callgsubr
        </CharString>
        <CharString name="Hcaron">
          245 367 hmoveto
          -87 callsubr
          1226 1735 -85 callgsubr
          endchar
        </CharString>
        <CharString name="Hcedilla">
          245 208 hmoveto
          -42 31 callsubr
          -50 hhcurveto
          -34 119 callsubr
          24 60 -14 70 hhcurveto
          122 callsubr
          129 11 hvcurveto
          1 7 0 7 6 vvcurveto
          96 -70 53 -99 2 vhcurveto
          33 119 104 581 rlineto
          571 hlineto
          -101 -581 rlineto
          269 hlineto
          -16 callsubr
          -271 hlineto
          -98 -552 rlineto
          -570 -40 callsubr
          endchar
        </CharString>
        <CharString name="Hcircumflex">
          245 367 hmoveto
          -87 callsubr
          456 1489 -79 callsubr
          endchar
        </CharString>
        <CharString name="Hdieresis">
          245 367 hmoveto
          -87 callsubr
          532 1578 -101 callgsubr
          endchar
        </CharString>
        <CharString name="Hdotaccent">
          245 367 hmoveto
          -87 callsubr
          712 1614 -78 callgsubr
        </CharString>
        <CharString name="Hdotbelow">
          245 367 hmoveto
          -87 callsubr
          385 37 callgsubr
          endchar
        </CharString>
        <CharString name="I">
          -598 -60 callgsubr
          endchar
        </CharString>
        <CharString name="I.1">
          -189 1037 1142 rmoveto
          38 224 rlineto
          -798 hlineto
          -38 -224 rlineto
          262 hlineto
          -162 -916 rlineto
          -264 hlineto
          -39 -226 rlineto
          263 hlineto
          272 hlineto
          263 hlineto
          39 226 rlineto
          -262 hlineto
          161 916 rlineto
          endchar
        </CharString>
        <CharString name="IAcyrillic">
          -69 callgsubr
          endchar
        </CharString>
        <CharString name="IJ">
          509 -60 callgsubr
          1624 -67 callsubr
          endchar
        </CharString>
        <CharString name="IJacute">
          509 -60 callgsubr
          1624 -67 callsubr
          -1180 1111 rmoveto
          196 hlineto
          335 321 rlineto
          -237 hlineto
          815 -321 -74 callgsubr
        </CharString>
        <CharString name="IUcyrillic">
          -91 callgsubr
          endchar
        </CharString>
        <CharString name="Iacute">
          -598 -60 callgsubr
          275 1503 -74 callgsubr
        </CharString>
        <CharString name="Iacute.1">
          -189 1072 1825 rmoveto
          -237 hlineto
          -294 -321 rlineto
          196 hlineto
          300 -362 rmoveto
          38 224 rlineto
          -798 hlineto
          -38 -224 rlineto
          262 hlineto
          -162 -916 rlineto
          -264 hlineto
          -39 -226 rlineto
          263 hlineto
          272 hlineto
          263 hlineto
          39 226 rlineto
          -262 hlineto
          161 916 rlineto
          endchar
        </CharString>
        <CharString name="Ibreve">
          -598 -60 callgsubr
          111 1764 -72 callgsubr
          endchar
        </CharString>
        <CharString name="Ibreve.1">
          -189 923 1765 rmoveto
          -89 -17 -77 -57 -95 hhcurveto
          -110 -46 66 78 hvcurveto
          2 -156 vlineto
          -2 -13 -2 -20 -13 vvcurveto
          -151 134 -97 159 199 146 113 181 25 vhcurveto
          -842 -623 rmoveto
          262 hlineto
          -162 -916 rlineto
          -264 hlineto
          -39 -226 rlineto
          263 hlineto
          272 hlineto
          263 hlineto
          39 226 rlineto
          -262 hlineto
          161 916 rlineto
          265 hlineto
          38 224 rlineto
          -798 hlineto
          endchar
        </CharString>
        <CharString name="Icaron">
          -598 -60 callgsubr
          808 1735 -85 callgsubr
          endchar
        </CharString>
        <CharString name="Icaron.1">
          -189 818 1494 rmoveto
          288 242 rlineto
          -222 hlineto
          -157 -130 rlineto
          -16 hlineto
          -116 130 rlineto
          -212 hlineto
          220 -242 rlineto
          -364 -352 rmoveto
          262 hlineto
          -162 -916 rlineto
          -264 hlineto
          -39 -226 rlineto
          263 hlineto
          272 hlineto
          263 hlineto
          39 226 rlineto
          -262 hlineto
          161 916 rlineto
          265 hlineto
          38 224 rlineto
          -798 hlineto
          endchar
        </CharString>
        <CharString name="Icircumflex">
          -598 -60 callgsubr
          38 1489 -79 callsubr
          endchar
        </CharString>
        <CharString name="Icircumflex.1">
          -189 713 1620 rmoveto
          16 hlineto
          116 -130 rlineto
          212 hlineto
          -220 243 rlineto
          -215 hlineto
          -288 -243 rlineto
          221 hlineto
          482 -348 rmoveto
          38 224 rlineto
          -798 hlineto
          -38 -224 rlineto
          262 hlineto
          -162 -916 rlineto
          -264 hlineto
          -39 -226 rlineto
          263 hlineto
          272 hlineto
          263 hlineto
          39 226 rlineto
          -262 hlineto
          161 916 rlineto
          endchar
        </CharString>
        <CharString name="Icyrillic">
          -578 377 hmoveto
          -52 callsubr
        </CharString>
        <CharString name="Icyrillic.1">
          -169 1047 1142 rmoveto
          38 224 rlineto
          -798 hlineto
          -38 -224 rlineto
          262 hlineto
          -162 -916 rlineto
          -264 hlineto
          -39 -226 rlineto
          263 hlineto
          272 hlineto
          263 hlineto
          39 226 rlineto
          -262 hlineto
          161 916 rlineto
          endchar
        </CharString>
        <CharString name="Idblgrave">
          -598 -60 callgsubr
          317 1503 -38 callsubr
          endchar
        </CharString>
        <CharString name="Idblgrave.1">
          -189 953 1504 rmoveto
          -179 321 rlineto
          -226 hlineto
          224 -321 rlineto
          -179 0 rmoveto
          -180 321 rlineto
          -226 hlineto
          225 -321 rlineto
          625 -362 rmoveto
          38 224 rlineto
          -798 hlineto
          -38 -224 rlineto
          262 hlineto
          -162 -916 rlineto
          -264 hlineto
          -39 -226 rlineto
          263 hlineto
          272 hlineto
          263 hlineto
          39 226 rlineto
          -262 hlineto
          161 916 rlineto
          endchar
        </CharString>
        <CharString name="Idieresis">
          -598 -60 callgsubr
          114 1578 -101 callgsubr
          endchar
        </CharString>
        <CharString name="Idieresis.1">
          -189 901 1463 rmoveto
          67 49 52 64 64 -49 52 -67 -67 -50 -52 -64 -64 50 -52 67 hvcurveto
          -372 0 rmoveto
          66 50 52 64 64 -50 52 -66 -67 -50 -52 -64 -64 50 -52 67 hvcurveto
          508 -321 rmoveto
          38 224 rlineto
          -798 hlineto
          -38 -224 rlineto
          262 hlineto
          -162 -916 rlineto
          -264 hlineto
          -39 -226 rlineto
          263 hlineto
          272 hlineto
          263 hlineto
          39 226 rlineto
          -262 hlineto
          161 916 rlineto
          endchar
        </CharString>
        <CharString name="Idieresisacute">
          -598 -60 callgsubr
          316 1752 -25 callsubr
          endchar
        </CharString>
        <CharString name="Idieresisacute.1">
          -189 1100 1945 rmoveto
          -244 hlineto
          -243 -192 rlineto
          204 hlineto
          -34 -173 rmoveto
          -64 50 -53 67 67 49 53 64 64 -49 53 -67 -67 -50 -53 -64 vhcurveto
          -255 -117 rmoveto
          66 50 53 64 64 -50 53 -66 -67 -50 -53 -64 -64 50 -53 67 hvcurveto
          -289 -321 rmoveto
          262 hlineto
          -162 -916 rlineto
          -264 hlineto
          -39 -226 rlineto
          263 hlineto
          272 hlineto
          263 hlineto
          39 226 rlineto
          -262 hlineto
          161 916 rlineto
          265 hlineto
          38 224 rlineto
          -798 hlineto
          endchar
        </CharString>
        <CharString name="Idotaccent">
          -598 -60 callgsubr
          294 1614 -78 callgsubr
        </CharString>
        <CharString name="Idotaccent.1">
          -189 711 1484 rmoveto
          71 57 58 73 72 -57 59 -71 -72 -57 -59 -72 -73 57 -58 72 hvcurveto
          326 -342 rmoveto
          38 224 rlineto
          -798 hlineto
          -38 -224 rlineto
          262 hlineto
          -162 -916 rlineto
          -264 hlineto
          -39 -226 rlineto
          263 hlineto
          272 hlineto
          263 hlineto
          39 226 rlineto
          -262 hlineto
          161 916 rlineto
          endchar
        </CharString>
        <CharString name="Idotbelow">
          -598 -60 callgsubr
          -34 37 callgsubr
          endchar
        </CharString>
        <CharString name="Idotbelow.1">
          -189 405 -109 rmoveto
          -75 -56 -48 -79 -80 56 -47 75 75 56 47 80 78 -56 49 -75 hvcurveto
          632 1251 rmoveto
          38 224 rlineto
          -798 hlineto
          -38 -224 rlineto
          262 hlineto
          -162 -916 rlineto
          -264 hlineto
          -39 -226 rlineto
          263 hlineto
          272 hlineto
          263 hlineto
          39 226 rlineto
          -262 hlineto
          161 916 rlineto
          endchar
        </CharString>
        <CharString name="Iecyrillic">
          -22 1020 -102 callgsubr
          endchar
        </CharString>
        <CharString name="Igrave">
          -598 -60 callgsubr
          498 1503 -31 callsubr
        </CharString>
        <CharString name="Igrave.1">
          -189 834 1504 rmoveto
          -180 321 rlineto
          -227 hlineto
          225 -321 rlineto
          385 -362 rmoveto
          38 224 rlineto
          -798 hlineto
          -38 -224 rlineto
          262 hlineto
          -162 -916 rlineto
          -264 hlineto
          -39 -226 rlineto
          263 hlineto
          272 hlineto
          263 hlineto
          39 226 rlineto
          -262 hlineto
          161 916 rlineto
          endchar
        </CharString>
        <CharString name="Ihookabove">
          -598 -60 callgsubr
          288 1709 -63 callsubr
          endchar
        </CharString>
        <CharString name="Ihookabove.1">
          -189 721 1451 rmoveto
          120 41 76 84 103 vvcurveto
          98 -93 61 -113 -43 -33 -5 -8 -24 vhcurveto
          -19 -118 rlineto
          7 21 26 3 30 hhcurveto
          60 39 -27 -38 -44 -32 -28 -75 -35 hvcurveto
          376 -403 rmoveto
          38 224 rlineto
          -798 hlineto
          -38 -224 rlineto
          262 hlineto
          -162 -916 rlineto
          -264 hlineto
          -39 -226 rlineto
          263 hlineto
          272 hlineto
          263 hlineto
          39 226 rlineto
          -262 hlineto
          161 916 rlineto
          endchar
        </CharString>
        <CharString name="Iicyrillic">
          265 957 hmoveto
          -58 callsubr
          endchar
        </CharString>
        <CharString name="Iinvertedbreve">
          -598 -60 callgsubr
          736 1474 -54 callsubr
          endchar
        </CharString>
        <CharString name="Iinvertedbreve.1">
          -189 856 1475 rmoveto
          156 hlineto
          2 14 3 19 14 vvcurveto
          150 -135 97 -159 -199 -145 -112 -182 -25 vhcurveto
          158 hlineto
          89 17 76 57 95 hhcurveto
          111 45 -66 -78 hvcurveto
          181 -335 rmoveto
          38 224 rlineto
          -798 hlineto
          -38 -224 rlineto
          262 hlineto
          -162 -916 rlineto
          -264 hlineto
          -39 -226 rlineto
          263 hlineto
          272 hlineto
          263 hlineto
          39 226 rlineto
          -262 hlineto
          161 916 rlineto
          endchar
        </CharString>
        <CharString name="Iishortcyrillic">
          265 957 hmoveto
          -58 callsubr
          -497 851 -83 callgsubr
          endchar
        </CharString>
        <CharString name="Imacron">
          -598 -60 callgsubr
          742 1633 -48 callsubr
        </CharString>
        <CharString name="Imacron.1">
          -189 1038 1634 rmoveto
          -634 hlineto
          -26 -134 rlineto
          635 hlineto
          24 -358 rmoveto
          38 224 rlineto
          -798 hlineto
          -38 -224 rlineto
          262 hlineto
          -162 -916 rlineto
          -264 hlineto
          -39 -226 rlineto
          263 hlineto
          272 hlineto
          263 hlineto
          39 226 rlineto
          -262 hlineto
          161 916 rlineto
          endchar
        </CharString>
        <CharString name="Iocyrillic">
          -22 1020 -102 callgsubr
          -477 1578 -101 callgsubr
          endchar
        </CharString>
        <CharString name="Iogonek">
          -598 327 -354 rmoveto
          25 149 rlineto
          -5 -19 -36 -4 -23 hhcurveto
          -61 -41 29 56 4 hvcurveto
          4 76 70 64 125 41 233 1314 rcurveline
          -272 hlineto
          -235 -1336 rlineto
          34 hlineto
          -1 -7 -72 -33 -84 -63 -6 -114 rlinecurve
          -105 -8 71 -86 146 hhcurveto
          65 60 15 9 21 hvcurveto
          endchar
        </CharString>
        <CharString name="Iogonek.1">
          -189 649 -378 rmoveto
          51 66 11 13 28 hvcurveto
          26 149 rlineto
          -5 -18 -35 -4 -25 hhcurveto
          -66 -36 32 53 4 hvcurveto
          5 80 75 67 119 34 30 174 rcurveline
          -264 hlineto
          164 916 rlineto
          264 hlineto
          38 224 rlineto
          -798 hlineto
          -38 -224 49 callgsubr
          -164 -916 rlineto
          -263 hlineto
          -39 -226 rlineto
          518 -13 hlineto
          -66 -41 -43 -65 -5 -68 rrcurveto
          -114 -10 84 -77 135 hhcurveto
          endchar
        </CharString>
        <CharString name="Iotadieresisgreek">
          -589 -60 callgsubr
          114 1578 -101 callgsubr
          endchar
        </CharString>
        <CharString name="Iotadieresisgreek.1">
          -189 901 1463 rmoveto
          67 49 52 64 64 -49 52 -67 -67 -50 -52 -64 -64 50 -52 67 hvcurveto
          -372 0 rmoveto
          66 50 52 64 64 -50 52 -66 -67 -50 -52 -64 -64 50 -52 67 hvcurveto
          508 -321 rmoveto
          38 224 rlineto
          -798 hlineto
          -38 -224 rlineto
          262 hlineto
          -162 -916 rlineto
          -264 hlineto
          -39 -226 rlineto
          263 hlineto
          272 hlineto
          263 hlineto
          39 226 rlineto
          -262 hlineto
          161 916 rlineto
          endchar
        </CharString>
        <CharString name="Iotagreek">
          -589 -60 callgsubr
          endchar
        </CharString>
        <CharString name="Iotagreek.1">
          -189 1037 1142 rmoveto
          38 224 rlineto
          -798 hlineto
          -38 -224 rlineto
          262 hlineto
          -162 -916 rlineto
          -264 hlineto
          -39 -226 rlineto
          263 hlineto
          272 hlineto
          263 hlineto
          39 226 rlineto
          -262 hlineto
          161 916 rlineto
          endchar
        </CharString>
        <CharString name="Iotatonosgreek">
          -203 720 -51 callgsubr
          -289 981 -29 callsubr
        </CharString>
        <CharString name="Iotatonosgreek.1">
          194 321 1366 rmoveto
          -170 -385 rlineto
          183 hlineto
          236 385 rlineto
          850 -224 rmoveto
          38 224 rlineto
          -798 hlineto
          -38 -224 rlineto
          262 hlineto
          -162 -916 rlineto
          -264 hlineto
          -39 -226 rlineto
          263 hlineto
          272 hlineto
          263 hlineto
          39 226 rlineto
          -262 hlineto
          161 916 rlineto
          endchar
        </CharString>
        <CharString name="Itilde">
          -598 -60 callgsubr
          526 1455 -90 callsubr
          endchar
        </CharString>
        <CharString name="Itilde.1">
          -189 899 1680 rmoveto
          -55 -5 -22 -43 -44 hhcurveto
          -69 -17 112 -148 hhcurveto
          -125 -70 -106 -112 -6 hvcurveto
          140 hlineto
          53 5 22 35 46 hhcurveto
          77 12 -108 140 hhcurveto
          122 77 105 119 4 hvcurveto
          -1 -538 rmoveto
          38 224 rlineto
          -798 hlineto
          -38 -224 rlineto
          262 hlineto
          -162 -916 rlineto
          -264 hlineto
          -39 -226 rlineto
          263 hlineto
          272 hlineto
          263 hlineto
          39 226 rlineto
          -262 hlineto
          161 916 rlineto
          endchar
        </CharString>
        <CharString name="Itildebelow">
          -598 -60 callgsubr
          194 -440 -64 callgsubr
          endchar
        </CharString>
        <CharString name="Itildebelow.1">
          -189 191 -393 rmoveto
          51 8 22 53 48 hhcurveto
          82 23 -151 141 hhcurveto
          128 98 120 150 9 hvcurveto
          -150 hlineto
          -50 -7 -24 -55 -47 hhcurveto
          -79 -28 151 -146 hhcurveto
          -130 -85 -112 -157 -13 hvcurveto
          996 1535 rmoveto
          38 224 rlineto
          -798 hlineto
          -38 -224 rlineto
          262 hlineto
          -162 -916 rlineto
          -264 hlineto
          -39 -226 rlineto
          263 hlineto
          272 hlineto
          263 hlineto
          39 226 rlineto
          -262 hlineto
          161 916 rlineto
          endchar
        </CharString>
        <CharString name="J">
          -97 1113 -67 callsubr
          endchar
        </CharString>
        <CharString name="Jcircumflex">
          -97 1113 -67 callsubr
          -309 1096 -79 callsubr
          endchar
        </CharString>
        <CharString name="Jecyrillic">
          -83 1123 -67 callsubr
          endchar
        </CharString>
        <CharString name="K">
          122 608 -65 callgsubr
          endchar
        </CharString>
        <CharString name="Kacute">
          122 608 -65 callgsubr
          213 747 -74 callgsubr
        </CharString>
        <CharString name="Kacyrillic">
          99 1438 1365 rmoveto
          -319 hlineto
          -535 -561 rlineto
          -68 hlineto
          99 561 rlineto
          -271 hlineto
          -241 -1365 rlineto
          271 hlineto
          105 589 rlineto
          68 hlineto
          353 -589 rlineto
          302 hlineto
          -405 687 rlineto
          endchar
        </CharString>
        <CharString name="Kappagreek">
          130 608 -65 callgsubr
          endchar
        </CharString>
        <CharString name="Kcaron">
          122 608 -65 callgsubr
          746 979 -85 callgsubr
          endchar
        </CharString>
        <CharString name="Kcommaaccent">
          122 608 -65 callgsubr
          63 -1212 -36 callsubr
        </CharString>
        <CharString name="Kdotbelow">
          122 608 -65 callgsubr
          -87 -992 -97 callsubr
        </CharString>
        <CharString name="Kjecyrillic">
          101 1282 1824 rmoveto
          -237 hlineto
          -294 -321 rlineto
          196 hlineto
          493 -138 rmoveto
          -319 hlineto
          -535 -561 rlineto
          -68 hlineto
          99 561 rlineto
          -271 hlineto
          -241 -1365 rlineto
          271 hlineto
          105 589 rlineto
          68 hlineto
          353 -589 rlineto
          302 hlineto
          -405 687 rlineto
          endchar
        </CharString>
        <CharString name="Klinebelow">
          122 608 -65 callgsubr
          332 -1098 -82 callgsubr
        </CharString>
        <CharString name="L">
          -139 -35 callsubr
          endchar
        </CharString>
        <CharString name="Lacute">
          -139 -35 callsubr
          -574 1503 -74 callgsubr
        </CharString>
        <CharString name="Lambdagreek">
          67 -38 hmoveto
          280 hlineto
          504 1077 rlineto
          17 hlineto
          113 -1077 rlineto
          289 hlineto
          -201 -18 callgsubr
          -324 hlineto
          endchar
        </CharString>
        <CharString name="Lcaron">
          -139 832 1429 103 callgsubr
          -80 -1192 rmoveto
          -574 hlineto
          200 1128 rlineto
          -271 -97 callgsubr
          846 hlineto
          endchar
        </CharString>
        <CharString name="Lcircumflexbelow">
          -139 -35 callsubr
          -889 -410 -63 callgsubr
          endchar
        </CharString>
        <CharString name="Lcommaaccent">
          -139 -35 callsubr
          -472 -456 -36 callsubr
        </CharString>
        <CharString name="Ldotbelow">
          -139 -35 callsubr
          -622 37 callgsubr
          endchar
        </CharString>
        <CharString name="Ldotbelowmacron">
          -139 -35 callsubr
          -622 37 callgsubr
          515 1869 -48 callsubr
        </CharString>
        <CharString name="Ljecyrillic">
          805 600 821 rmoveto
          63 312 rlineto
          400 hlineto
          -201 -1133 rlineto
          509 hlineto
          335 186 161 254 41 hvcurveto
          6 34 3 37 32 vvcurveto
          245 -166 150 -264 vhcurveto
          -219 hlineto
          81 452 rlineto
          -919 hlineto
          -96 -503 rlineto
          -494 -99 -62 -134 -130 hhcurveto
          -16 -20 3 6 -13 hvcurveto
          -41 -243 rlineto
          -9 18 34 -7 40 hhcurveto
          304 99 230 607 127 hvcurveto
          851 -123 rmoveto
          124 95 -61 -135 -20 -2 -27 -5 -19 hvcurveto
          -131 -20 -107 -76 -167 hhcurveto
          -197 hlineto
          84 469 rlineto
          endchar
        </CharString>
        <CharString name="Llinebelow">
          -139 -35 callsubr
          -203 -342 -82 callgsubr
        </CharString>
        <CharString name="Lslash">
          -106 970 hmoveto
          41 237 rlineto
          -578 hlineto
          77 432 353 179 41 240 -353 -181 83 459 rlineto
          -271 hlineto
          -109 -618 -133 -68 -41 -237 133 68 -91 -511 rlineto
          endchar
        </CharString>
        <CharString name="M">
          461 343 -70 callsubr
          endchar
        </CharString>
        <CharString name="Macute">
          461 343 -70 callsubr
          794 1503 -74 callgsubr
        </CharString>
        <CharString name="Mdotaccent">
          461 343 -70 callsubr
          813 1614 -78 callgsubr
        </CharString>
        <CharString name="Mdotbelow">
          461 343 -70 callsubr
          487 37 callgsubr
          endchar
        </CharString>
        <CharString name="Mugreek">
          479 343 -70 callsubr
          endchar
        </CharString>
        <CharString name="N">
          227 1192 -86 callgsubr
          endchar
        </CharString>
        <CharString name="Nacute">
          227 1192 -86 callgsubr
          -174 1503 -74 callgsubr
        </CharString>
        <CharString name="Ncaron">
          227 1192 -86 callgsubr
          359 1735 -85 callgsubr
          endchar
        </CharString>
        <CharString name="Ncircumflexbelow">
          227 1192 -86 callgsubr
          -748 -410 -63 callgsubr
          endchar
        </CharString>
        <CharString name="Ncommaaccent">
          227 1192 -86 callgsubr
          -331 -456 -36 callsubr
        </CharString>
        <CharString name="Ndotaccent">
          227 1192 -86 callgsubr
          -155 1614 -78 callgsubr
        </CharString>
        <CharString name="Ndotbelow">
          227 1192 -86 callgsubr
          -481 37 callgsubr
          endchar
        </CharString>
        <CharString name="Ngrave">
          227 1192 -86 callgsubr
          49 1503 -31 callsubr
        </CharString>
        <CharString name="Njecyrillic">
          883 939 hmoveto
          507 hlineto
          325 187 153 230 48 hvcurveto
          9 37 5 40 33 vvcurveto
          216 -157 146 -271 vhcurveto
          -232 hlineto
          91 510 rlineto
          -271 hlineto
          -91 -510 rlineto
          -558 hlineto
          91 510 102 callsubr
          111 623 rlineto
          557 hlineto
          196 -402 rmoveto
          75 416 rlineto
          204 hlineto
          139 81 -59 -106 -14 -2 -21 -2 -14 hvcurveto
          -127 -16 -107 -75 -171 hhcurveto
          endchar
        </CharString>
        <CharString name="Nlinebelow">
          227 1192 -86 callgsubr
          -62 -342 -82 callgsubr
        </CharString>
        <CharString name="Ntilde">
          227 1192 -86 callgsubr
          77 1455 -90 callsubr
          endchar
        </CharString>
        <CharString name="Nugreek">
          236 1192 -86 callgsubr
          endchar
        </CharString>
        <CharString name="NumberSignCyrillic">
          959 354 hmoveto
          194 895 rlineto
          10 hlineto
          401 -895 rlineto
          224 hlineto
          290 1365 93 callsubr
          -193 -889 rlineto
          -11 hlineto
          -400 889 rlineto
          -226 hlineto
          -290 -75 callgsubr
          1923 438 rmoveto
          40 192 rlineto
          -570 hlineto
          -39 -192 rlineto
          544 643 rmoveto
          -105 -58 -72 -87 -74 -44 51 87 106 58 71 86 75 44 -51 -87 vhcurveto
          195 7 rmoveto
          184 -116 116 -186 -206 -145 -145 -209 -185 118 -115 189 203 143 147 207 vhcurveto
          endchar
        </CharString>
        <CharString name="O">
          189 457 820 -107 callgsubr
          endchar
        </CharString>
        <CharString name="OE">
          799 152 669 rmoveto
          -11 -57 -4 -72 -52 vvcurveto
          -339 206 -175 284 149 135 57 115 83 vhcurveto
          9 hlineto
          -26 -146 rlineto
          834 hlineto
          39 228 rlineto
          -605 hlineto
          64 355 rlineto
          569 hlineto
          37 213 rlineto
          -569 hlineto
          62 342 rlineto
          605 hlineto
          39 228 rlineto
          -840 hlineto
          -33 -191 rlineto
          -9 hlineto
          125 -63 -140 90 -205 hhcurveto
          -293 -221 -184 -338 -60 hvcurveto
          269 -51 rmoveto
          229 43 121 106 164 hhcurveto
          189 104 -137 -176 -25 -2 -48 -7 -39 hvcurveto
          -29 -171 rlineto
          -230 -40 -113 -116 -182 hhcurveto
          -182 -109 117 191 40 5 54 7 42 hvcurveto
          endchar
        </CharString>
        <CharString name="Oacute">
          189 457 820 -107 callgsubr
          570 635 -74 callgsubr
        </CharString>
        <CharString name="Obreve">
          189 457 820 -107 callgsubr
          406 896 -72 callgsubr
          endchar
        </CharString>
        <CharString name="Ocaron">
          189 457 820 -107 callgsubr
          1103 867 -85 callgsubr
          endchar
        </CharString>
        <CharString name="Ocircumflex">
          189 457 820 -107 callgsubr
          333 621 -79 callsubr
          endchar
        </CharString>
        <CharString name="Ocircumflexacute">
          189 457 820 -107 callgsubr
          328 629 -55 callsubr
          323 -53 rmoveto
          174 hlineto
          277 242 rlineto
          -221 hlineto
          endchar
        </CharString>
        <CharString name="Ocircumflexdotbelow">
          189 457 820 -107 callgsubr
          333 621 -79 callsubr
          -356 -1968 -97 callsubr
        </CharString>
        <CharString name="Ocircumflexgrave">
          189 457 820 -107 callgsubr
          328 629 -55 callsubr
          584 -55 rmoveto
          -176 244 rlineto
          -207 hlineto
          211 124 callsubr
        </CharString>
        <CharString name="Ocircumflexhookabove">
          189 457 820 -107 callgsubr
          328 629 -21 callsubr
        </CharString>
        <CharString name="Ocircumflextilde">
          189 457 820 -107 callgsubr
          353 629 -41 callgsubr
        </CharString>
        <CharString name="Ocyrillic">
          209 467 820 -107 callgsubr
          endchar
        </CharString>
        <CharString name="Odblgrave">
          189 457 820 -107 callgsubr
          612 635 -38 callsubr
          endchar
        </CharString>
        <CharString name="Odieresis">
          189 457 820 -107 callgsubr
          409 710 -101 callgsubr
          endchar
        </CharString>
        <CharString name="Odieresismacron">
          189 457 820 -107 callgsubr
          1076 1042 -26 callsubr
        </CharString>
        <CharString name="Odotaccent">
          189 457 820 -107 callgsubr
          589 746 -78 callgsubr
        </CharString>
        <CharString name="Odotaccentmacron">
          189 457 820 -107 callgsubr
          583 701 22 callgsubr
        </CharString>
        <CharString name="Odotbelow">
          189 457 820 -107 callgsubr
          265 -1104 -97 callsubr
        </CharString>
        <CharString name="Ograve">
          189 457 820 -107 callgsubr
          793 635 -31 callsubr
        </CharString>
        <CharString name="Ohookabove">
          189 457 820 -107 callgsubr
          583 841 -63 callsubr
          endchar
        </CharString>
        <CharString name="Ohorn">
          -95 callsubr
          endchar
        </CharString>
        <CharString name="Ohornacute">
          -95 callsubr
          -543 1003 -74 callgsubr
        </CharString>
        <CharString name="Ohorndotbelow">
          -95 callsubr
          -848 -736 -97 callsubr
        </CharString>
        <CharString name="Ohorngrave">
          -95 callsubr
          -320 1003 -31 callsubr
        </CharString>
        <CharString name="Ohornhookabove">
          -95 callsubr
          -530 1209 -63 callsubr
          endchar
        </CharString>
        <CharString name="Ohorntilde">
          -95 callsubr
          -292 955 -90 callsubr
          endchar
        </CharString>
        <CharString name="Ohungarumlaut">
          189 457 820 -107 callgsubr
          393 635 14 callgsubr
        </CharString>
        <CharString name="Oinvertedbreve">
          189 457 820 -107 callgsubr
          1031 606 -54 callsubr
          endchar
        </CharString>
        <CharString name="Omacron">
          189 457 820 -107 callgsubr
          1037 765 -48 callsubr
        </CharString>
        <CharString name="Omacronacute">
          189 457 820 -107 callgsubr
          601 875 36 callgsubr
        </CharString>
        <CharString name="Omacrongrave">
          189 457 820 -107 callgsubr
          1038 765 28 callsubr
        </CharString>
        <CharString name="Omegagreek">
          235 735 -21 callgsubr
          endchar
        </CharString>
        <CharString name="Omegatonosgreek">
          503 1003 -21 callgsubr
          -890 711 -29 callsubr
        </CharString>
        <CharString name="Omicrongreek">
          189 457 820 -107 callgsubr
          endchar
        </CharString>
        <CharString name="Omicrontonosgreek">
          479 748 820 -107 callgsubr
          -320 113 -29 callsubr
        </CharString>
        <CharString name="Oogonek">
          -28 callsubr
          endchar
        </CharString>
        <CharString name="Oogonekmacron">
          -28 callsubr
          799 975 -48 callsubr
        </CharString>
        <CharString name="Oslash">
          -32 callgsubr
          endchar
        </CharString>
        <CharString name="Oslashacute">
          -32 callgsubr
          -268 464 -74 callgsubr
        </CharString>
        <CharString name="Otilde">
          189 457 820 -107 callgsubr
          821 587 -90 callsubr
          endchar
        </CharString>
        <CharString name="Otildeacute">
          189 457 820 -107 callgsubr
          626 875 rmoveto
          180 hlineto
          277 193 rlineto
          -224 hlineto
          -40 -481 -35 callgsubr
        </CharString>
        <CharString name="Otildedieresis">
          189 457 820 -107 callgsubr
          817 557 -90 callsubr
          -368 395 -101 callgsubr
          endchar
        </CharString>
        <CharString name="Otildemacron">
          189 457 820 -107 callgsubr
          1072 1042 112 callsubr
          -26 -134 rlineto
          623 hlineto
          -227 -321 -35 callgsubr
        </CharString>
        <CharString name="P">
          28 366 hmoveto
          -77 callgsubr
          endchar
        </CharString>
        <CharString name="Pacute">
          28 366 hmoveto
          -77 callgsubr
          91 353 -74 callgsubr
        </CharString>
        <CharString name="Pdotaccent">
          28 366 hmoveto
          -77 callgsubr
          110 464 -78 callgsubr
        </CharString>
        <CharString name="Pecyrillic">
          249 1204 45 callsubr
          -1098 3 callgsubr
          200 1132 rlineto
          556 114 callgsubr
          endchar
        </CharString>
        <CharString name="Phigreek">
          488 1644 762 rmoveto
          284 -188 208 -323 50 vhcurveto
          23 134 93 callsubr
          -24 -129 rlineto
          -400 -242 -190 -314 -68 hvcurveto
          -19 -99 -7 -57 -58 vvcurveto
          -291 187 -210 326 -51 vhcurveto
          -23 -126 rlineto
          256 hlineto
          22 121 rlineto
          406 252 200 348 59 hvcurveto
          14 86 4 52 42 vvcurveto
          -797 333 rmoveto
          -150 -842 rlineto
          -182 31 -105 120 188 vvcurveto
          38 4 40 14 80 vhcurveto
          213 44 153 132 222 hhcurveto
          93 -846 rmoveto
          150 842 rlineto
          182 -32 106 -110 -196 vvcurveto
          -30 -3 -32 -9 -56 vhcurveto
          -38 -240 -155 -144 -233 -2 rrcurveto
          endchar
        </CharString>
        <CharString name="Pigreek">
          225 367 hmoveto
          201 1133 rlineto
          551 hlineto
          -201 -1133 65 callsubr
          -16 callsubr
          -1094 -97 callgsubr
          endchar
        </CharString>
        <CharString name="Psigreek">
          358 580 hmoveto
          257 hlineto
          52 288 rlineto
          5 5 -1 5 hhcurveto
          335 6 182 162 55 317 104 593 rcurveline
          -257 hlineto
          -100 -569 -36 -195 -79 -85 -181 -1 rlinecurve
          151 850 100 callsubr
          -151 -847 rlineto
          -131 14 -70 56 137 vvcurveto
          26 5 34 6 31 vhcurveto
          96 549 rlineto
          -258 hlineto
          -92 -521 rlineto
          -8 -47 -5 -44 -40 vvcurveto
          -257 150 -131 268 -36 vhcurveto
          endchar
        </CharString>
        <CharString name="Q">
          204 153 679 rmoveto
          -11 -62 -3 -59 -55 vvcurveto
          -341 236 -188 312 72 63 9 17 59 vhcurveto
          75 -123 rlineto
          264 hlineto
          -140 237 112 90 73 134 31 171 rlinecurve
          33 180 rlineto
          11 59 4 56 44 vvcurveto
          347 -232 195 -327 -315 -225 -198 -334 -59 vhcurveto
          675 -432 rmoveto
          -234 hlineto
          136 -224 rlineto
          -3 -19 -18 -2 -21 hhcurveto
          -182 -115 112 196 44 5 53 8 47 hvcurveto
          33 173 rlineto
          232 43 118 106 166 hhcurveto
          177 115 -113 -185 -22 -1 -62 -8 -45 hvcurveto
          -34 -184 -18 -97 -36 -79 -51 -49 rlinecurve
          endchar
        </CharString>
        <CharString name="R">
          -96 callsubr
          endchar
        </CharString>
        <CharString name="Racute">
          -96 callsubr
          91 358 -74 callgsubr
        </CharString>
        <CharString name="Rcaron">
          -96 callsubr
          624 590 -85 callgsubr
          endchar
        </CharString>
        <CharString name="Rcommaaccent">
          -96 callsubr
          -64 -1601 -36 callsubr
        </CharString>
        <CharString name="Rdblgrave">
          -96 callsubr
          133 358 -38 callsubr
          endchar
        </CharString>
        <CharString name="Rdotaccent">
          -96 callsubr
          110 469 -78 callgsubr
        </CharString>
        <CharString name="Rdotbelow">
          -96 callsubr
          -214 -1381 -97 callsubr
        </CharString>
        <CharString name="Rdotbelowmacron">
          -96 callsubr
          -214 -1381 -99 callgsubr
          772 1869 -48 callsubr
        </CharString>
        <CharString name="Rhogreek">
          41 366 hmoveto
          -77 callgsubr
          endchar
        </CharString>
        <CharString name="Rinvertedbreve">
          -96 callsubr
          552 329 -54 callsubr
          endchar
        </CharString>
        <CharString name="Rlinebelow">
          -96 callsubr
          205 -1487 -82 callgsubr
        </CharString>
        <CharString name="S">
          45 93 404 rmoveto
          -103 callsubr
          endchar
        </CharString>
        <CharString name="Sacute">
          45 93 404 rmoveto
          -103 callsubr
          333 1099 -74 callgsubr
        </CharString>
        <CharString name="Sacutedotaccent">
          45 93 404 rmoveto
          -103 callsubr
          448 1093 58 callsubr
        </CharString>
        <CharString name="Scaron">
          45 93 404 rmoveto
          -103 callsubr
          866 1331 -85 callgsubr
          endchar
        </CharString>
        <CharString name="Scarondotaccent">
          45 93 404 rmoveto
          -103 callsubr
          861 1308 39 callsubr
        </CharString>
        <CharString name="Scedilla">
          45 529 -483 94 callsubr
          96 -70 53 -100 2 vhcurveto
          27 95 rlineto
          0 vlineto
          282 15 212 154 267 vvcurveto
          227 -160 81 -165 57 vhcurveto
          -111 37 rlineto
          -126 44 -90 50 94 vvcurveto
          110 111 58 119 123 112 -63 -115 vhcurveto
          -9 -1 -5 -2 vvcurveto
          247 hlineto
          5 2 22 10 vvcurveto
          222 -206 155 -275 -283 -228 -149 -271 -222 169 -102 173 -58 vhcurveto
          97 -34 rlineto
          117 -39 96 -39 -104 vvcurveto
          -116 -114 -63 -135 -159 -110 86 104 8 0 7 1 6 vhcurveto
          -256 hlineto
          -3 -13 -1 -15 -16 vvcurveto
          -205 172 -140 233 -32 vhcurveto
          -37 -141 -11 111 callgsubr
          75 50 callgsubr
          -51 96 callsubr
          6 11 32 callgsubr
          endchar
        </CharString>
        <CharString name="Scircumflex">
          45 93 404 rmoveto
          -103 callsubr
          96 1085 -79 callsubr
          endchar
        </CharString>
        <CharString name="Scommaaccent">
          45 93 404 rmoveto
          -103 callsubr
          177 -860 -36 callsubr
        </CharString>
        <CharString name="Sdotaccent">
          45 93 404 rmoveto
          -103 callsubr
          352 1210 -78 callgsubr
        </CharString>
        <CharString name="Sdotbelow">
          45 93 404 rmoveto
          -103 callsubr
          27 -640 -97 callsubr
        </CharString>
        <CharString name="Sdotbelowdotaccent">
          45 93 404 rmoveto
          -103 callsubr
          27 -640 -99 callgsubr
          325 1850 -78 callgsubr
        </CharString>
        <CharString name="Shacyrillic">
          791 105 hmoveto
          1640 -9 callgsubr
          -271 hlineto
          -202 110 callsubr
          -413 89 callsubr
          -201 -1132 rlineto
          -413 89 callsubr
          endchar
        </CharString>
        <CharString name="Shchacyrillic">
          843 1867 -286 rmoveto
          91 519 rlineto
          -172 114 callsubr
          -272 114 callgsubr
          -413 114 callsubr
          -271 114 callgsubr
          -413 114 callsubr
          -272 -97 callgsubr
          1571 105 callgsubr
        </CharString>
        <CharString name="Sigmagreek">
          3 1047 hmoveto
          38 230 rlineto
          -636 hlineto
          3 14 386 420 7 38 -231 419 2 15 rlineto
          610 hlineto
          40 229 rlineto
          -962 hlineto
          -30 -178 279 -498 -468 -519 -29 -170 rlineto
          endchar
        </CharString>
        <CharString name="Softsigncyrillic">
          49 694 -57 callgsubr
          endchar
        </CharString>
        <CharString name="T">
          -79 626 -40 callgsubr
          endchar
        </CharString>
        <CharString name="Taugreek">
          -57 626 -40 callgsubr
          endchar
        </CharString>
        <CharString name="Tbar">
          -78 958 593 rmoveto
          30 174 rlineto
          -227 hlineto
          66 364 107 callsubr
          39 234 rlineto
          -1042 hlineto
          -40 -234 107 callsubr
          -66 -364 rlineto
          -230 hlineto
          -30 -174 rlineto
          230 hlineto
          -106 -593 65 callsubr
          105 593 rlineto
          endchar
        </CharString>
        <CharString name="Tcaron">
          -79 626 -40 callgsubr
          808 1735 -85 callgsubr
          endchar
        </CharString>
        <CharString name="Tcedilla">
          -80 425 hmoveto
          -42 -158 -11 111 callgsubr
          75 50 callgsubr
          -51 96 callsubr
          6 11 -33 hvcurveto
          -21 -123 rlineto
          -9 24 59 -14 71 hhcurveto
          37 callsubr
          34 119 rlineto
          46 hlineto
          201 1131 rlineto
          382 hlineto
          39 234 rlineto
          -1042 hlineto
          -40 -234 123 callsubr
          -202 -1131 rlineto
          endchar
        </CharString>
        <CharString name="Tcircumflexbelow">
          -79 626 -40 callgsubr
          -299 -410 -63 callgsubr
          endchar
        </CharString>
        <CharString name="Tcommaaccent">
          -79 626 -40 callgsubr
          118 -456 -36 callsubr
        </CharString>
        <CharString name="Tdotaccent">
          -79 626 -40 callgsubr
          294 1614 -78 callgsubr
        </CharString>
        <CharString name="Tdotbelow">
          -79 626 -40 callgsubr
          -32 37 callgsubr
          endchar
        </CharString>
        <CharString name="Tecyrillic">
          -70 630 -40 callgsubr
          endchar
        </CharString>
        <CharString name="Thetagreek">
          233 696 -26 rmoveto
          394 195 204 335 61 hvcurveto
          33 175 14 70 4 69 -2 52 rlinecurve
          335 -11 -239 177 -325 hhcurveto
          -376 -202 -223 -321 -57 hvcurveto
          -32 -175 rlineto
          -11 -60 -4 -60 -55 vvcurveto
          -325 1 226 -198 331 hhcurveto
          29 239 rmoveto
          -195 -117 105 200 49 5 39 8 43 hvcurveto
          31 168 rlineto
          251 47 118 88 188 hhcurveto
          194 113 -111 -180 3 hvcurveto
          -28 -1 -58 -9 -47 vhcurveto
          -29 -161 rlineto
          -252 -44 -107 -106 -205 hhcurveto
          241 360 rmoveto
          38 223 rlineto
          -436 hlineto
          -37 -223 rlineto
          endchar
        </CharString>
        <CharString name="Thorn">
          38 335 -19 callsubr
          -241 -75 callgsubr
          270 hlineto
          46 257 rlineto
          232 hlineto
          335 182 155 248 39 hvcurveto
          6 34 3 31 33 vvcurveto
          231 -153 146 -273 vhcurveto
          -218 hlineto
          40 230 rlineto
          114 -452 rmoveto
          138 79 -58 -121 -20 -3 -23 -4 -19 hvcurveto
          -116 -22 -78 -80 -191 hhcurveto
          -189 hlineto
          79 437 rlineto
          endchar
        </CharString>
        <CharString name="Tlinebelow">
          -79 626 -40 callgsubr
          387 -342 -82 callgsubr
        </CharString>
        <CharString name="Tsecyrillic">
          307 1331 -286 rmoveto
          90 519 rlineto
          -171 81 callsubr
          201 1132 rlineto
          -272 -97 callgsubr
          1035 105 callgsubr
        </CharString>
        <CharString name="Tshecyrillic">
          413 778 757 rmoveto
          -12 hlineto
          68 374 rlineto
          383 hlineto
          41 234 rlineto
          -1043 hlineto
          -41 -234 rlineto
          389 hlineto
          -200 -1131 rlineto
          270 hlineto
          94 527 rlineto
          50 65 104 35 93 hhcurveto
          159 65 -91 -172 -30 hvcurveto
          -62 -349 rlineto
          270 hlineto
          62 347 rlineto
          313 54 -131 180 -300 hhcurveto
          -107 -117 -34 -49 -74 hvcurveto
          endchar
        </CharString>
        <CharString name="U">
          -104 callgsubr
          endchar
        </CharString>
        <CharString name="Uacute">
          -104 callgsubr
          317 957 -74 callgsubr
        </CharString>
        <CharString name="Ubreve">
          -104 callgsubr
          153 1218 -72 callgsubr
          endchar
        </CharString>
        <CharString name="Ucaron">
          -104 callgsubr
          850 1189 -85 callgsubr
          endchar
        </CharString>
        <CharString name="Ucircumflex">
          -104 callgsubr
          80 943 -79 callsubr
          endchar
        </CharString>
        <CharString name="Ucircumflexbelow">
          -104 callgsubr
          -260 -956 -63 callgsubr
          endchar
        </CharString>
        <CharString name="Ucyrillic">
          0 1079 1365 rmoveto
          -395 -714 rlineto
          -12 hlineto
          -201 714 rlineto
          -295 hlineto
          326 -1011 rlineto
          -90 -70 -59 -44 -90 hhcurveto
          -47 -36 8 3 -11 hvcurveto
          -36 -231 rlineto
          -3 9 42 -13 67 hhcurveto
          255 116 136 258 150 hvcurveto
          574 987 rlineto
          endchar
        </CharString>
        <CharString name="Udblgrave">
          -104 callgsubr
          359 957 -38 callsubr
          endchar
        </CharString>
        <CharString name="Udieresis">
          -104 callgsubr
          156 1032 -101 callgsubr
          endchar
        </CharString>
        <CharString name="Udieresisacute">
          -104 callgsubr
          358 1206 -25 callsubr
          endchar
        </CharString>
        <CharString name="Udieresisbelow">
          -104 callgsubr
          -61 -908 -101 callsubr
        </CharString>
        <CharString name="Udieresiscaron">
          -104 callgsubr
          879 1398 19 callsubr
        </CharString>
        <CharString name="Udieresisgrave">
          -104 callgsubr
          168 1398 rmoveto
          237 -192 rlineto
          188 hlineto
          -193 192 rlineto
          -244 -366 -101 callgsubr
          endchar
        </CharString>
        <CharString name="Udieresismacron">
          -104 callgsubr
          823 1364 -26 callsubr
        </CharString>
        <CharString name="Udotbelow">
          -104 callgsubr
          7 -782 -97 callsubr
        </CharString>
        <CharString name="Ugrave">
          -104 callgsubr
          540 957 -31 callsubr
        </CharString>
        <CharString name="Uhookabove">
          -104 callgsubr
          330 1163 -63 callsubr
          endchar
        </CharString>
        <CharString name="Uhorn">
          -86 callsubr
          endchar
        </CharString>
        <CharString name="Uhornacute">
          -86 callsubr
          79 1527 -74 callgsubr
        </CharString>
        <CharString name="Uhorndotbelow">
          -86 callsubr
          -231 -212 -97 callsubr
        </CharString>
        <CharString name="Uhorngrave">
          -86 callsubr
          302 1527 -31 callsubr
        </CharString>
        <CharString name="Uhornhookabove">
          -86 callsubr
          92 1733 -63 callsubr
          endchar
        </CharString>
        <CharString name="Uhorntilde">
          -86 callsubr
          330 1479 -90 callsubr
          endchar
        </CharString>
        <CharString name="Uhungarumlaut">
          -104 callgsubr
          140 957 14 callgsubr
        </CharString>
        <CharString name="Uinvertedbreve">
          -104 callgsubr
          778 928 -54 callsubr
          endchar
        </CharString>
        <CharString name="Umacron">
          -104 callgsubr
          784 1087 -48 callsubr
        </CharString>
        <CharString name="Umacrondieresis">
          -104 callgsubr
          778 1068 35 callgsubr
        </CharString>
        <CharString name="Uogonek">
          197 1027 69 rmoveto
          103 87 85 100 28 162 166 947 rcurveline
          -274 hlineto
          -158 -888 rlineto
          -179 -32 -109 -77 -143 hhcurveto
          -159 -99 96 146 28 3 36 4 19 hvcurveto
          144 819 rlineto
          -274 hlineto
          -143 -821 rlineto
          -6 -33 -6 -50 -42 vvcurveto
          -279 218 -162 240 61 73 14 24 49 vhcurveto
          -15 vlineto
          -78 -51 -39 -65 -11 -66 -21 -126 89 -80 142 -2 63 -1 59 15 20 6 27 159 rcurveline
          -7 -23 -33 -2 -20 hhcurveto
          -67 -46 28 71 12 hvcurveto
          13 75 68 49 74 65 rrcurveto
          endchar
        </CharString>
        <CharString name="Upsilondieresisgreek">
          -14 754 513 -83 callsubr
          -163 1578 -101 callgsubr
          endchar
        </CharString>
        <CharString name="Upsilongreek">
          -13 754 513 -83 callsubr
          endchar
        </CharString>
        <CharString name="Upsilontonosgreek">
          492 1259 513 -83 callsubr
          -1009 981 -29 callsubr
        </CharString>
        <CharString name="Uring">
          -104 callgsubr
          475 1035 4 callsubr
        </CharString>
        <CharString name="Ushortcyrillic">
          0 1013 1762 rmoveto
          -91 -17 -66 -61 -122 hhcurveto
          -118 -49 61 91 16 hvcurveto
          -158 hlineto
          -171 -29 110 -121 205 hhcurveto
          224 134 117 175 27 hvcurveto
          -91 -397 rmoveto
          -395 -714 rlineto
          -12 hlineto
          -201 714 rlineto
          -295 hlineto
          326 -1011 rlineto
          -90 -70 -59 -44 -90 hhcurveto
          -47 -36 8 3 -11 hvcurveto
          -36 -231 rlineto
          -3 9 42 -13 67 hhcurveto
          255 116 136 258 150 hvcurveto
          574 987 rlineto
          endchar
        </CharString>
        <CharString name="Utilde">
          -104 callgsubr
          568 909 -90 callsubr
          endchar
        </CharString>
        <CharString name="Utildeacute">
          -104 callgsubr
          373 1197 rmoveto
          180 hlineto
          277 193 rlineto
          -224 hlineto
          -40 -481 -35 callgsubr
        </CharString>
        <CharString name="Utildebelow">
          -104 callgsubr
          235 -986 -64 callgsubr
          endchar
        </CharString>
        <CharString name="V">
          23 callsubr
          endchar
        </CharString>
        <CharString name="Vdotbelow">
          23 callsubr
          -8 37 callgsubr
          endchar
        </CharString>
        <CharString name="Vecyrillic">
          127 105 -80 callgsubr
          endchar
        </CharString>
        <CharString name="Vtilde">
          23 callsubr
          547 1455 -90 callsubr
          endchar
        </CharString>
        <CharString name="W">
          619 575 -72 callsubr
          endchar
        </CharString>
        <CharString name="Wacute">
          619 575 -72 callsubr
          665 1503 -74 callgsubr
        </CharString>
        <CharString name="Wcircumflex">
          619 575 -72 callsubr
          428 1489 -79 callsubr
          endchar
        </CharString>
        <CharString name="Wdieresis">
          619 575 -72 callsubr
          504 1578 -101 callgsubr
          endchar
        </CharString>
        <CharString name="Wdotaccent">
          619 575 -72 callsubr
          684 1614 -78 callgsubr
        </CharString>
        <CharString name="Wdotbelow">
          619 575 -72 callsubr
          361 37 callgsubr
          endchar
        </CharString>
        <CharString name="Wgrave">
          619 575 -72 callsubr
          888 1503 -31 callsubr
        </CharString>
        <CharString name="X">
          69 1098 1365 -59 callsubr
          endchar
        </CharString>
        <CharString name="Xacyrillic">
          89 1108 1365 -59 callsubr
          endchar
        </CharString>
        <CharString name="Xdieresis">
          69 1098 1365 -59 callsubr
          -875 213 -101 callgsubr
          endchar
        </CharString>
        <CharString name="Xdotaccent">
          69 1098 1365 -59 callsubr
          -695 249 -78 callgsubr
        </CharString>
        <CharString name="Xigreek">
          -1 248 1130 113 callgsubr
          -53 -787 rmoveto
          790 hlineto
          39 221 rlineto
          -790 hlineto
          -228 -799 113 callgsubr
          endchar
        </CharString>
        <CharString name="Y">
          -13 754 513 -83 callsubr
          endchar
        </CharString>
        <CharString name="Yacute">
          -13 754 513 -83 callsubr
          -2 1503 -74 callgsubr
        </CharString>
        <CharString name="Ycircumflex">
          -13 754 513 -83 callsubr
          -239 1489 -79 callsubr
          endchar
        </CharString>
        <CharString name="Ydieresis">
          -13 754 513 -83 callsubr
          -163 1578 -101 callgsubr
          endchar
        </CharString>
        <CharString name="Ydotaccent">
          -13 754 513 -83 callsubr
          17 1614 -78 callgsubr
        </CharString>
        <CharString name="Ydotbelow">
          -13 754 513 -83 callsubr
          -308 37 callgsubr
          endchar
        </CharString>
        <CharString name="Yericyrillic">
          -37 callsubr
          endchar
        </CharString>
        <CharString name="Ygrave">
          -13 754 513 -83 callsubr
          221 1503 -31 callsubr
        </CharString>
        <CharString name="Yhookabove">
          -13 754 513 -83 callsubr
          11 1709 -63 callsubr
          endchar
        </CharString>
        <CharString name="Yicyrillic">
          -578 377 -51 callgsubr
          114 1578 -101 callgsubr
          endchar
        </CharString>
        <CharString name="Yicyrillic.1">
          -169 911 1463 rmoveto
          67 49 52 64 64 -49 52 -67 -67 -50 -52 -64 -64 50 -52 67 hvcurveto
          -372 0 rmoveto
          66 50 52 64 64 -50 52 -66 -67 -50 -52 -64 -64 50 -52 67 hvcurveto
          508 -321 rmoveto
          38 224 rlineto
          -798 hlineto
          -38 -224 rlineto
          262 hlineto
          -162 -916 rlineto
          -264 hlineto
          -39 -226 rlineto
          263 hlineto
          272 hlineto
          263 hlineto
          39 226 rlineto
          -262 hlineto
          161 916 rlineto
          endchar
        </CharString>
        <CharString name="Ymacron">
          -13 754 513 -83 callsubr
          465 1633 -48 callsubr
        </CharString>
        <CharString name="Ytilde">
          -13 754 513 -83 callsubr
          249 1455 -90 callsubr
          endchar
        </CharString>
        <CharString name="Z">
          20 59 hmoveto
          -61 callsubr
          endchar
        </CharString>
        <CharString name="Zacute">
          20 59 hmoveto
          -61 callsubr
          602 1313 -74 callgsubr
        </CharString>
        <CharString name="Zcaron">
          20 59 hmoveto
          -61 callsubr
          1135 1545 -85 callgsubr
          endchar
        </CharString>
        <CharString name="Zcircumflex">
          20 59 hmoveto
          -61 callsubr
          365 1299 -79 callsubr
          endchar
        </CharString>
        <CharString name="Zdotaccent">
          20 59 hmoveto
          -61 callsubr
          621 1424 -78 callgsubr
        </CharString>
        <CharString name="Zdotbelow">
          20 59 hmoveto
          -61 callsubr
          297 -426 -97 callsubr
        </CharString>
        <CharString name="Zecyrillic">
          7 457 596 -81 callsubr
          endchar
        </CharString>
        <CharString name="Zetagreek">
          30 59 hmoveto
          -61 callsubr
          endchar
        </CharString>
        <CharString name="Zhecyrillic">
          718 2060 1365 rmoveto
          -315 hlineto
          -517 -561 rlineto
          -69 hlineto
          99 561 rlineto
          -262 hlineto
          -99 -561 rlineto
          -69 hlineto
          -328 561 rlineto
          -297 hlineto
          380 -631 -631 -734 rlineto
          327 hlineto
          513 589 rlineto
          68 hlineto
          -105 -589 rlineto
          262 hlineto
          105 589 rlineto
          69 hlineto
          320 -589 rlineto
          301 hlineto
          -368 690 rlineto
          endchar
        </CharString>
        <CharString name="Zlinebelow">
          20 59 hmoveto
          -61 callsubr
          716 -532 -82 callgsubr
        </CharString>
        <CharString name="a">
          -73 393 -107 callsubr
          endchar
        </CharString>
        <CharString name="a.1">
          -105 callgsubr
          endchar
        </CharString>
        <CharString name="aacute">
          -73 393 -107 callsubr
          219 915 -75 callsubr
        </CharString>
        <CharString name="aacute.1">
          -105 callgsubr
          1 155 -75 callsubr
        </CharString>
        <CharString name="abreve">
          -73 393 -107 callsubr
          86 1206 -80 callsubr
          endchar
        </CharString>
        <CharString name="abreve.1">
          -105 callgsubr
          -102 446 -80 callsubr
          endchar
        </CharString>
        <CharString name="abreveacute">
          -73 393 -107 callsubr
          70 1135 -84 callgsubr
          215 100 rmoveto
          171 hlineto
          332 331 87 callsubr
          endchar
        </CharString>
        <CharString name="abreveacute.1">
          -105 callgsubr
          -118 373 -84 callgsubr
          215 100 rmoveto
          171 hlineto
          332 331 87 callsubr
          endchar
        </CharString>
        <CharString name="abrevedotbelow">
          -73 393 -107 callsubr
          86 1206 -80 callsubr
          -289 -1758 -97 callsubr
        </CharString>
        <CharString name="abrevedotbelow.1">
          -105 callgsubr
          -102 446 -80 callsubr
          -306 -1758 -97 callsubr
        </CharString>
        <CharString name="abrevegrave">
          -73 393 -107 callsubr
          70 1133 -84 callgsubr
          409 100 rmoveto
          -177 331 rlineto
          -218 hlineto
          231 -331 rlineto
          endchar
        </CharString>
        <CharString name="abrevegrave.1">
          -105 callgsubr
          -98 373 -84 callgsubr
          409 100 rmoveto
          -177 331 rlineto
          -218 hlineto
          231 -331 rlineto
          endchar
        </CharString>
        <CharString name="abrevehookabove">
          -73 393 -107 callsubr
          70 1134 -84 callgsubr
          192 385 rmoveto
          -18 -116 rlineto
          9 22 28 4 27 hhcurveto
          60 35 -26 -40 -45 -36 -31 -68 -28 hvcurveto
          57 -94 rlineto
          115 39 75 82 102 vvcurveto
          105 -88 52 -115 -42 -32 -5 -8 -20 vhcurveto
          endchar
        </CharString>
        <CharString name="abrevehookabove.1">
          -105 callgsubr
          -118 373 -84 callgsubr
          192 385 rmoveto
          -18 -116 rlineto
          9 22 28 4 27 hhcurveto
          60 35 -26 -40 -45 -36 -31 -68 -28 hvcurveto
          57 -94 rlineto
          115 39 75 82 102 vvcurveto
          105 -88 52 -115 -42 -32 -5 -8 -20 vhcurveto
          endchar
        </CharString>
        <CharString name="abrevetilde">
          -73 393 -107 callsubr
          70 1135 -84 callgsubr
          477 117 rmoveto
          120 84 108 124 9 hvcurveto
          -137 hlineto
          -63 -7 -26 -40 -41 -73 -14 129 -147 hhcurveto
          -115 -84 -97 -130 -10 hvcurveto
          137 hlineto
          57 6 25 36 46 79 8 -124 118 callsubr
        </CharString>
        <CharString name="abrevetilde.1">
          -105 callgsubr
          -118 373 -84 callgsubr
          477 117 rmoveto
          120 84 108 124 9 hvcurveto
          -137 hlineto
          -63 -7 -26 -40 -41 -73 -14 129 -147 hhcurveto
          -115 -84 -97 -130 -10 hvcurveto
          137 hlineto
          57 6 25 36 46 79 8 -124 118 callsubr
        </CharString>
        <CharString name="acaron">
          -73 393 -107 callsubr
          741 1268 -76 callsubr
        </CharString>
        <CharString name="acaron.1">
          -105 callgsubr
          580 508 -76 callsubr
        </CharString>
        <CharString name="acircumflex">
          -73 393 -107 callsubr
          -3 915 -76 callgsubr
          endchar
        </CharString>
        <CharString name="acircumflex.1">
          -105 callgsubr
          -142 155 -76 callgsubr
          endchar
        </CharString>
        <CharString name="acircumflexacute">
          -73 393 -107 callsubr
          -13 915 -28 callgsubr
        </CharString>
        <CharString name="acircumflexacute.1">
          -105 callgsubr
          -173 155 -28 callgsubr
        </CharString>
        <CharString name="acircumflexdotbelow">
          -73 393 -107 callsubr
          -3 915 -76 callgsubr
          -351 -1822 -97 callsubr
        </CharString>
        <CharString name="acircumflexdotbelow.1">
          -105 callgsubr
          -162 155 -76 callgsubr
          -349 -1822 -97 callsubr
        </CharString>
        <CharString name="acircumflexgrave">
          -73 393 -107 callsubr
          -13 915 -32 callsubr
        </CharString>
        <CharString name="acircumflexgrave.1">
          -105 callgsubr
          -173 155 -32 callsubr
        </CharString>
        <CharString name="acircumflexhookabove">
          -73 393 -107 callsubr
          -5 915 -58 callgsubr
        </CharString>
        <CharString name="acircumflexhookabove.1">
          -105 callgsubr
          -173 155 -58 callgsubr
        </CharString>
        <CharString name="acircumflextilde">
          -73 393 -107 callsubr
          -4 930 -60 callsubr
        </CharString>
        <CharString name="acircumflextilde.1">
          -105 callgsubr
          -164 155 -60 callsubr
        </CharString>
        <CharString name="acute">
          -205 400 1231 -75 callsubr
        </CharString>
        <CharString name="acutecmb">
          15 1231 -75 callsubr
        </CharString>
        <CharString name="acutecmb.short">
          64 1504 -74 callgsubr
        </CharString>
        <CharString name="acutedotaccentcmb">
          134 1223 59 callsubr
        </CharString>
        <CharString name="acutedotaccentcmb.short">
          179 1498 58 callsubr
        </CharString>
        <CharString name="acyrillic">
          -67 393 -107 callsubr
          endchar
        </CharString>
        <CharString name="acyrillic.1">
          34 847 636 44 callgsubr
          -269 440 74 callsubr
          149 -151 214 160 97 96 89 36 vhcurveto
          16 hlineto
          -32 -171 49 callgsubr
          189 1063 80 callsubr
          endchar
        </CharString>
        <CharString name="adblgrave">
          -73 393 -107 callsubr
          270 915 -44 callgsubr
        </CharString>
        <CharString name="adblgrave.1">
          -105 callgsubr
          101 155 -44 callgsubr
        </CharString>
        <CharString name="adieresis">
          -73 393 -107 callsubr
          171 900 -101 callsubr
        </CharString>
        <CharString name="adieresis.1">
          -105 callgsubr
          3 140 -101 callsubr
        </CharString>
        <CharString name="adieresismacron">
          -73 393 -107 callsubr
          712 1276 -49 callgsubr
        </CharString>
        <CharString name="adieresismacron.1">
          -105 callgsubr
          544 516 -49 callgsubr
        </CharString>
        <CharString name="adotaccent">
          -73 393 -107 callsubr
          247 1058 -73 callsubr
        </CharString>
        <CharString name="adotaccent.1">
          -105 callgsubr
          65 298 -73 callsubr
        </CharString>
        <CharString name="adotbelow">
          -73 393 -107 callsubr
          -53 -552 -97 callsubr
        </CharString>
        <CharString name="adotbelow.1">
          -105 callgsubr
          -224 -1312 -97 callsubr
        </CharString>
        <CharString name="adotmacron">
          -73 393 -107 callsubr
          720 1276 rmoveto
          25 142 rlineto
          -627 hlineto
          111 callsubr
          148 -248 -73 callsubr
        </CharString>
        <CharString name="adotmacron.1">
          -105 callgsubr
          552 516 rmoveto
          25 142 rlineto
          -627 hlineto
          111 callsubr
          148 -248 -73 callsubr
        </CharString>
        <CharString name="ae">
          577 1210 -92 callsubr
          endchar
        </CharString>
        <CharString name="aeacute">
          577 1210 -92 callsubr
          -592 596 -75 callsubr
        </CharString>
        <CharString name="aemacron">
          577 1210 -92 callsubr
          -143 613 -82 callgsubr
        </CharString>
        <CharString name="agrave">
          -73 393 -107 callsubr
          477 915 -37 callgsubr
        </CharString>
        <CharString name="agrave.1">
          27 849 634 rmoveto
          -17 -1 -29 -4 -21 vhcurveto
          -20 -107 rlineto
          -155 -27 -87 -100 -130 hhcurveto
          -125 -78 83 137 29 3 35 3 18 hvcurveto
          22 108 rlineto
          143 27 81 99 131 hhcurveto
          103 102 -74 -149 hvcurveto
          -271 441 rmoveto
          -240 -151 -168 -252 -46 hvcurveto
          -27 -131 rlineto
          -8 -44 -4 -52 -45 vvcurveto
          -246 145 -153 215 162 104 95 93 33 vhcurveto
          15 hlineto
          -30 -173 rlineto
          263 -4 callsubr
          -266 hlineto
          -36 -207 rlineto
          -14 hlineto
          109 -17 -113 111 -172 hhcurveto
          318 155 -37 callgsubr
        </CharString>
        <CharString name="ahookabove">
          -73 393 -107 callsubr
          223 1133 -65 callsubr
        </CharString>
        <CharString name="ahookabove.1">
          -105 callgsubr
          9 383 -65 callsubr
        </CharString>
        <CharString name="ainvertedbreve">
          -73 393 -107 callsubr
          663 919 -59 callgsubr
        </CharString>
        <CharString name="ainvertedbreve.1">
          -105 callgsubr
          503 159 -59 callgsubr
        </CharString>
        <CharString name="alphagreek">
          -27 callsubr
          endchar
        </CharString>
        <CharString name="alphatonosgreek">
          -27 callsubr
          29 1008 -29 callsubr
        </CharString>
        <CharString name="amacron">
          -73 393 -107 callsubr
          668 932 -82 callgsubr
        </CharString>
        <CharString name="amacron.1">
          -105 callgsubr
          500 172 -82 callgsubr
        </CharString>
        <CharString name="ampersand">
          221 1133 732 rmoveto
          -1 -22 -6 -52 -6 -24 -14 -87 -33 -79 -53 -75 -234 324 rcurveline
          10 6 26 12 8 5 rrcurveto
          212 102 92 108 148 vvcurveto
          167 -149 112 -223 -232 -161 -124 -179 -87 36 -84 89 -128 vhcurveto
          -27 -12 rlineto
          -249 -104 -115 -129 -172 vvcurveto
          -232 188 -153 284 138 130 36 72 119 vhcurveto
          63 -90 275 1 -162 229 105 114 62 118 23 132 rlinecurve
          5 25 14 98 2 24 rrcurveto
          -755 -565 rmoveto
          -143 -102 87 121 93 77 82 145 62 hvcurveto
          22 9 262 -376 rlineto
          -49 -67 -96 -29 -98 hhcurveto
          4 894 rmoveto
          82 67 59 92 87 65 -52 -69 -87 -66 -68 -138 -56 vhcurveto
          -1 -1 -16 -6 -1 -1 rrcurveto
          -63 86 -26 59 54 vvcurveto
          endchar
        </CharString>
        <CharString name="anoteleia">
          -622 197 888 76 callsubr
        </CharString>
        <CharString name="aogonek">
          -74 339 319 rmoveto
          80 64 66 131 vhcurveto
          205 hlineto
          -22 -115 rlineto
          -97 -20 -95 -68 -108 hhcurveto
          -95 -60 56 78 hvcurveto
          521 -686 rmoveto
          25 153 rlineto
          -5 -20 -37 -3 -23 hhcurveto
          -61 -44 30 55 6 hvcurveto
          9 95 134 57 74 24 101 572 rcurveline
          7 40 7 44 36 vvcurveto
          218 -152 130 -258 -271 -145 -145 -162 -25 vhcurveto
          249 hlineto
          59 18 58 46 98 hhcurveto
          123 51 -71 -74 -13 -2 -15 -2 -9 hvcurveto
          -12 -72 rlineto
          -258 hlineto
          -252 -159 -105 -188 -21 hvcurveto
          -2 -16 0 -16 -14 vvcurveto
          -191 141 -109 176 153 95 79 75 37 vhcurveto
          14 hlineto
          -21 -123 -75 -48 -81 -48 -12 -112 rlinecurve
          -135 -13 109 -61 117 hhcurveto
          65 52 13 9 27 hvcurveto
          endchar
        </CharString>
        <CharString name="aogonek.1">
          27 849 635 rmoveto
          -18 -2 -31 -3 -18 vhcurveto
          -20 -107 rlineto
          -161 -28 -91 -94 -125 hhcurveto
          -126 -77 84 136 27 3 35 3 20 hvcurveto
          22 108 rlineto
          154 30 87 88 122 hhcurveto
          120 85 -91 -132 hvcurveto
          96 -1001 rmoveto
          25 153 rlineto
          -5 -17 -33 -4 -23 hhcurveto
          -62 -42 31 54 6 hvcurveto
          9 81 107 61 101 34 180 1024 rcurveline
          -266 hlineto
          -36 -207 rlineto
          -14 hlineto
          125 -19 -132 95 -151 hhcurveto
          -226 -162 -155 -265 -49 hvcurveto
          -27 -131 rlineto
          -8 -40 -4 -50 -51 vvcurveto
          -243 141 -156 219 136 124 76 112 39 vhcurveto
          15 hlineto
          -27 -158 rlineto
          25 hlineto
          -93 -51 -73 -52 -12 -105 rrcurveto
          -126 -13 96 -70 129 hhcurveto
          60 49 12 11 28 hvcurveto
          endchar
        </CharString>
        <CharString name="approxequal">
          0 869 586 -13 callsubr
        </CharString>
        <CharString name="approxequal.uc">
          0 885 766 -13 callsubr
        </CharString>
        <CharString name="aring">
          -73 393 -107 callsubr
          383 1017 -82 callsubr
        </CharString>
        <CharString name="aring.1">
          -105 callgsubr
          215 257 -82 callsubr
        </CharString>
        <CharString name="aringacute">
          -73 393 -107 callsubr
          382 1016 -18 callsubr
        </CharString>
        <CharString name="aringacute.1">
          -105 callgsubr
          214 256 -18 callsubr
        </CharString>
        <CharString name="aringbelow">
          -73 393 -107 callsubr
          80 -704 -82 callsubr
        </CharString>
        <CharString name="aringbelow.1">
          -105 callgsubr
          -5 -1464 -82 callsubr
        </CharString>
        <CharString name="asciicircum">
          -279 931 797 rmoveto
          -190 568 rlineto
          -230 hlineto
          -389 -568 rlineto
          228 hlineto
          235 352 rlineto
          13 hlineto
          103 -352 rlineto
          endchar
        </CharString>
        <CharString name="asciitilde">
          -38 834 475 rmoveto
          181 111 161 209 9 hvcurveto
          -195 hlineto
          -77 -10 -36 -64 -77 -139 -51 209 -216 hhcurveto
          -190 -107 -163 -212 -4 hvcurveto
          195 hlineto
          83 10 43 67 70 131 64 -213 211 hhcurveto
          endchar
        </CharString>
        <CharString name="asterisk">
          -221 866 664 rmoveto
          114 151 -269 161 304 81 -69 177 -277 -153 81 303 -184 27 -7 -315 -224 223 -114 -151 268 -161 -302 -80 69 -178 274 151 -78 -301 184 -27 7 312 rlineto
          endchar
        </CharString>
        <CharString name="asterisk.uc">
          16 1127 453 rmoveto
          -339 196 398 123 -82 217 -362 -210 117 396 -228 25 -23 -409 -280 278 -148 -190 340 -198 -399 -120 83 -216 363 208 -117 -396 228 -25 25 406 277 -276 rlineto
          endchar
        </CharString>
        <CharString name="at">
          557 1056 281 -47 callsubr
        </CharString>
        <CharString name="at.uc">
          557 1100 371 -47 callsubr
        </CharString>
        <CharString name="atilde">
          -73 393 -107 callsubr
          482 903 -95 callgsubr
          endchar
        </CharString>
        <CharString name="atilde.1">
          -105 callgsubr
          313 135 -95 callgsubr
          endchar
        </CharString>
        <CharString name="austral">
          0 453 485 rmoveto
          69 164 rlineto
          236 hlineto
          11 -164 rlineto
          -57 613 rmoveto
          16 hlineto
          21 -311 rlineto
          -168 hlineto
          630 -148 rmoveto
          26 148 rlineto
          -240 hlineto
          -67 578 rlineto
          -325 hlineto
          -269 -578 rlineto
          -235 hlineto
          -25 -148 rlineto
          191 hlineto
          -69 -149 rlineto
          -149 hlineto
          -26 -147 rlineto
          107 hlineto
          -160 -343 rlineto
          278 hlineto
          145 343 rlineto
          385 hlineto
          23 -343 rlineto
          287 hlineto
          -40 343 rlineto
          111 hlineto
          26 147 rlineto
          -154 hlineto
          -17 149 rlineto
          endchar
        </CharString>
        <CharString name="b">
          -71 callgsubr
          endchar
        </CharString>
        <CharString name="backslash">
          -430 627 -303 86 callsubr
        </CharString>
        <CharString name="backslash.uc">
          -430 650 -172 86 callsubr
        </CharString>
        <CharString name="baht">
          0 710 599 rmoveto
          123 -17 60 -62 -101 vvcurveto
          -137 -107 -80 -148 -15 vhcurveto
          -295 -2 rmoveto
          74 418 rlineto
          140 hlineto
          -74 -418 rlineto
          36 999 rmoveto
          141 hlineto
          -66 -375 rlineto
          -142 hlineto
          360 365 rmoveto
          77 -19 41 -46 -81 vvcurveto
          -114 -73 -73 -108 -24 vhcurveto
          143 -96 rmoveto
          135 23 156 124 191 vvcurveto
          154 -94 134 -244 16 vhcurveto
          25 140 rlineto
          -154 hlineto
          -24 -138 rlineto
          -387 hlineto
          -241 -1365 rlineto
          387 hlineto
          -25 -140 rlineto
          154 hlineto
          25 140 rlineto
          323 6 217 144 262 vvcurveto
          171 -119 106 -136 18 vhcurveto
          endchar
        </CharString>
        <CharString name="bar">
          -430 378 -313 87 callgsubr
        </CharString>
        <CharString name="bar.uc">
          -430 401 -182 87 callgsubr
        </CharString>
        <CharString name="bdotaccent">
          -71 callgsubr
          -56 1249 -78 callgsubr
        </CharString>
        <CharString name="bdotbelow">
          -71 callgsubr
          -12 -673 -97 callsubr
        </CharString>
        <CharString name="becyrillic">
          -18 402 571 rmoveto
          155 31 79 87 130 hhcurveto
          128 73 -93 -124 -13 1 -33 -4 -22 hvcurveto
          -1 -7 -13 -66 -1 -6 rrcurveto
          -150 -28 -75 -102 -131 hhcurveto
          -137 -74 93 129 33 3 23 4 24 hvcurveto
          1 6 13 60 1 6 rrcurveto
          322 446 rmoveto
          -161 -96 -73 -109 -58 hvcurveto
          -13 hlineto
          58 215 91 113 236 11 105 6 rcurveline
          208 10 90 97 38 150 rrcurveto
          -216 hlineto
          -11 -26 -38 -20 -82 -3 -90 -5 rcurveline
          -403 -19 -152 -221 -83 -458 -15 -83 rcurveline
          -13 -68 -3 -53 -48 vvcurveto
          -278 1 182 -171 281 hhcurveto
          289 173 174 249 47 hvcurveto
          2 9 15 74 1 9 rrcurveto
          5 34 2 36 27 vvcurveto
          256 -156 165 -234 vhcurveto
          endchar
        </CharString>
        <CharString name="betagreek">
          41 14 -353 rmoveto
          263 hlineto
          95 540 rlineto
          11 hlineto
          -124 39 111 -79 175 hhcurveto
          275 166 206 255 159 -86 128 -141 34 hvcurveto
          2 14 rlineto
          145 53 95 125 188 vvcurveto
          210 -171 126 -239 -305 -139 -157 -336 -59 vhcurveto
          391 -784 rmoveto
          -139 -85 85 128 25 2 20 9 54 hvcurveto
          90 497 rlineto
          184 33 72 73 119 hhcurveto
          120 58 -63 -110 -142 -76 -75 -151 hvcurveto
          -77 hlineto
          -34 -204 rlineto
          56 hlineto
          157 87 -87 -129 -149 -87 -107 -154 hvcurveto
          endchar
        </CharString>
        <CharString name="bitcoin">
          0 369 236 rmoveto
          66 370 rlineto
          218 hlineto
          134 72 -53 -100 -137 -100 -80 -211 hvcurveto
          -20 896 rmoveto
          199 hlineto
          121 48 -57 -74 -124 -93 -78 -188 hvcurveto
          -147 hlineto
          415 -80 rmoveto
          160 26 117 141 149 vvcurveto
          148 -99 100 -166 22 vhcurveto
          36 205 rlineto
          -137 hlineto
          -36 -200 rlineto
          -131 hlineto
          35 200 rlineto
          -136 hlineto
          -36 -200 rlineto
          -172 hlineto
          -222 -1256 rlineto
          174 hlineto
          -36 -198 rlineto
          136 hlineto
          36 198 rlineto
          133 hlineto
          -37 -198 rlineto
          136 hlineto
          37 201 rlineto
          279 23 172 158 210 vvcurveto
          135 -100 106 -145 19 vhcurveto
          endchar
        </CharString>
        <CharString name="blinebelow">
          -71 callgsubr
          407 -779 -82 callgsubr
        </CharString>
        <CharString name="braceleft">
          -430 309 588 -2 callsubr
        </CharString>
        <CharString name="braceleft.uc">
          -430 330 708 -2 callsubr
        </CharString>
        <CharString name="braceright">
          -430 522 559 0 callgsubr
        </CharString>
        <CharString name="braceright.uc">
          -430 543 679 0 callgsubr
        </CharString>
        <CharString name="bracketleft">
          -430 359 1437 64 callsubr
        </CharString>
        <CharString name="bracketleft.uc">
          -430 380 1557 64 callsubr
        </CharString>
        <CharString name="bracketright">
          -430 237 1437 64 callgsubr
        </CharString>
        <CharString name="bracketright.uc">
          -430 258 1557 64 callgsubr
        </CharString>
        <CharString name="breve">
          -205 397 1520 -80 callsubr
          endchar
        </CharString>
        <CharString name="breveacutecmb">
          -134 1449 -84 callgsubr
          215 100 rmoveto
          171 hlineto
          332 331 87 callsubr
          endchar
        </CharString>
        <CharString name="breveacutecmb.short">
          -91 1733 -5 callgsubr
          59 15 rmoveto
          168 hlineto
          222 197 rlineto
          -212 hlineto
          endchar
        </CharString>
        <CharString name="brevebelowcmb">
          -413 -113 9 callgsubr
        </CharString>
        <CharString name="brevecmb">
          -118 1522 -80 callsubr
          endchar
        </CharString>
        <CharString name="brevecmb.short">
          -100 1765 -72 callgsubr
          endchar
        </CharString>
        <CharString name="brevecyrillic">
          -198 384 1528 -89 callgsubr
        </CharString>
        <CharString name="brevecyrillic.short">
          -98 1763 -83 callgsubr
          endchar
        </CharString>
        <CharString name="brevegravecmb">
          -134 1449 -84 callgsubr
          409 100 rmoveto
          -177 331 rlineto
          -218 hlineto
          231 -331 rlineto
          endchar
        </CharString>
        <CharString name="brevegravecmb.short">
          -91 1733 -5 callgsubr
          255 15 rmoveto
          -125 197 rlineto
          -208 hlineto
          165 -197 rlineto
          endchar
        </CharString>
        <CharString name="brevehookabovecmb">
          -134 1449 -84 callgsubr
          192 385 rmoveto
          -18 -116 rlineto
          9 22 28 4 27 hhcurveto
          60 35 -26 -40 -45 -36 -31 -68 -28 hvcurveto
          57 -94 rlineto
          115 39 75 82 102 vvcurveto
          105 -88 52 -115 -42 -32 -5 -8 -20 vhcurveto
          endchar
        </CharString>
        <CharString name="brevehookabovecmb.short">
          -83 1709 10 callsubr
        </CharString>
        <CharString name="brevetildecmb">
          -134 1449 -84 callgsubr
          477 117 rmoveto
          120 84 108 124 9 hvcurveto
          -137 hlineto
          -63 -7 -26 -40 -41 -73 -14 129 -147 hhcurveto
          -115 -84 -97 -130 -10 hvcurveto
          137 hlineto
          57 6 25 36 46 79 8 -124 118 callsubr
        </CharString>
        <CharString name="brevetildecmb.short">
          -73 1699 6 callsubr
        </CharString>
        <CharString name="brokenbar">
          -430 572 783 rmoveto
          115 654 rlineto
          -237 hlineto
          -116 -654 rlineto
          44 -1096 rmoveto
          119 671 rlineto
          -238 hlineto
          -118 -671 rlineto
          endchar
        </CharString>
        <CharString name="bullet">
          -221 515 191 59 callgsubr
        </CharString>
        <CharString name="bullet.uc">
          -221 540 330 59 callgsubr
        </CharString>
        <CharString name="c">
          -103 106 403 -90 callgsubr
          endchar
        </CharString>
        <CharString name="cacute">
          -103 106 403 -90 callgsubr
          463 828 -75 callsubr
        </CharString>
        <CharString name="caron">
          -205 1051 1581 -76 callsubr
        </CharString>
        <CharString name="caroncmb">
          544 1584 -76 callsubr
        </CharString>
        <CharString name="caroncmb.short">
          597 1736 -85 callgsubr
          endchar
        </CharString>
        <CharString name="carondotaccentcmb">
          -137 1580 40 callsubr
        </CharString>
        <CharString name="carondotaccentcmb.short">
          592 1713 39 callsubr
        </CharString>
        <CharString name="ccaron">
          -103 106 403 -90 callgsubr
          992 1181 -76 callsubr
        </CharString>
        <CharString name="ccedilla">
          -104 449 -67 callgsubr
          endchar
        </CharString>
        <CharString name="ccedillaacute">
          -104 449 -67 callgsubr
          120 1714 -75 callsubr
        </CharString>
        <CharString name="ccircumflex">
          -103 106 403 -90 callgsubr
          250 828 -76 callgsubr
          endchar
        </CharString>
        <CharString name="cdotaccent">
          -103 106 403 -90 callgsubr
          494 971 -73 callsubr
        </CharString>
        <CharString name="cedi">
          0 412 822 rmoveto
          39 206 103 113 141 20 -165 -935 rcurveline
          -103 40 -60 100 144 vvcurveto
          39 6 70 6 39 vhcurveto
          857 229 rmoveto
          4 14 5 33 23 vvcurveto
          202 -146 154 -215 47 vhcurveto
          25 143 rlineto
          -154 hlineto
          -23 -128 -301 -4 -223 -186 -58 -326 rlinecurve
          -39 -205 rlineto
          -5 -27 -4 -62 -41 vvcurveto
          -288 143 -186 245 -48 vhcurveto
          -25 -142 rlineto
          154 hlineto
          23 130 273 7 209 151 36 240 rlinecurve
          3 8 2 23 1 4 rrcurveto
          -245 hlineto
          -25 -132 -89 -72 -127 -11 166 939 rcurveline
          85 -31 53 -72 7 -102 1 -16 -1 -22 -2 -17 rrcurveto
          endchar
        </CharString>
        <CharString name="cedilla">
          -205 274 -156 -36 callgsubr
        </CharString>
        <CharString name="cedillacmb">
          -197 -156 -36 callgsubr
        </CharString>
        <CharString name="cent">
          0 174 548 rmoveto
          -201 111 -146 175 -49 vhcurveto
          -42 -234 rlineto
          213 hlineto
          39 219 rlineto
          1 hlineto
          203 9 173 122 29 197 rrcurveto
          -253 hlineto
          -67 -14 -65 -51 -106 hhcurveto
          -140 -64 90 138 25 2 32 7 39 hvcurveto
          18 109 rlineto
          155 28 91 79 116 hhcurveto
          124 64 -85 -79 hvcurveto
          -1 0 -10 -3 vvcurveto
          245 hlineto
          2 6 1 12 13 vvcurveto
          159 -106 132 -168 46 vhcurveto
          45 243 rlineto
          -213 hlineto
          -41 -225 rlineto
          0 vlineto
          -218 -16 -178 -132 -45 -258 -21 -124 rcurveline
          -9 -49 -4 -54 -41 vvcurveto
          endchar
        </CharString>
        <CharString name="checyrillic">
          -9 963 hmoveto
          -45 callgsubr
          endchar
        </CharString>
        <CharString name="chigreek">
          -19 555 131 rmoveto
          100 -312 rlineto
          -125 41 60 -55 137 hhcurveto
          41 40 5 7 26 hvcurveto
          35 199 rlineto
          -3 -16 -13 -2 -22 hhcurveto
          -54 -32 25 90 -31 hvcurveto
          -130 385 535 718 rlineto
          -271 hlineto
          -348 -475 rlineto
          -12 hlineto
          -94 293 rlineto
          142 -45 -55 48 -134 hhcurveto
          -48 -45 -7 -6 -25 hvcurveto
          -35 -200 rlineto
          4 14 20 4 16 hhcurveto
          63 26 -22 -81 28 hvcurveto
          132 -390 -542 -726 rlineto
          271 hlineto
          357 484 rlineto
          endchar
        </CharString>
        <CharString name="circumflex">
          -205 299 1231 -76 callgsubr
          endchar
        </CharString>
        <CharString name="circumflexacutecmb">
          -209 1231 -28 callgsubr
        </CharString>
        <CharString name="circumflexacutecmb.short">
          63 callgsubr
          323 -53 rmoveto
          174 hlineto
          277 242 rlineto
          -221 hlineto
          endchar
        </CharString>
        <CharString name="circumflexbelowcmb">
          -510 -410 -63 callgsubr
          endchar
        </CharString>
        <CharString name="circumflexcmb">
          -198 1231 -76 callgsubr
          endchar
        </CharString>
        <CharString name="circumflexcmb.short">
          -173 1490 -79 callsubr
          endchar
        </CharString>
        <CharString name="circumflexgravecmb">
          -209 1231 -32 callsubr
        </CharString>
        <CharString name="circumflexgravecmb.short">
          63 callgsubr
          584 -55 rmoveto
          -176 244 rlineto
          -207 hlineto
          211 124 callsubr
        </CharString>
        <CharString name="circumflexhookabovecmb">
          -209 1231 -58 callgsubr
        </CharString>
        <CharString name="circumflexhookabovecmb.short">
          -178 1498 -21 callsubr
        </CharString>
        <CharString name="circumflextildecmb">
          -200 1231 -60 callsubr
        </CharString>
        <CharString name="circumflextildecmb.short">
          -153 1498 -41 callgsubr
        </CharString>
        <CharString name="colon">
          -615 189 808 rmoveto
          -104 78 -67 96 100 77 67 104 106 -77 69 -100 -96 -78 -68 -107 vhcurveto
          -116 -656 rmoveto
          48 callgsubr
          endchar
        </CharString>
        <CharString name="colon.uc">
          -614 222 1000 rmoveto
          -104 78 -67 96 99 78 67 104 106 -77 69 -100 -97 -77 -68 -107 vhcurveto
          -112 -656 rmoveto
          48 callgsubr
          endchar
        </CharString>
        <CharString name="coloncurrency">
          0 922 1163 rmoveto
          6 6 0 6 hhcurveto
          48 45 -4 -6 40 hvcurveto
          -422 -908 -47 21 -39 28 -30 35 rlinecurve
          -42 454 rmoveto
          32 179 97 118 138 52 -297 -638 rcurveline
          -2 16 -1 17 17 vvcurveto
          32 5 44 6 37 vhcurveto
          907 834 rmoveto
          -148 hlineto
          -58 -125 -42 10 -50 7 -53 5 rlinecurve
          48 103 rlineto
          -148 hlineto
          -47 -102 -332 -21 -246 -202 -68 -354 rlinecurve
          -25 -132 rlineto
          -9 -49 -5 -57 -49 vvcurveto
          -135 46 -115 78 -90 vhcurveto
          -147 -317 rlineto
          148 hlineto
          104 224 38 -26 42 -21 45 -18 rlinecurve
          -74 -159 rlineto
          148 hlineto
          56 121 rlineto
          -10 52 55 -5 57 hhcurveto
          50 60 3 5 40 hvcurveto
          39 225 rlineto
          -4 -35 -58 -3 -49 hhcurveto
          -38 -37 3 5 -34 hvcurveto
          endchar
        </CharString>
        <CharString name="comma">
          -644 153 -388 rmoveto
          311 617 rlineto
          -283 hlineto
          -242 -617 rlineto
          endchar
        </CharString>
        <CharString name="commaaccent">
          -205 422 -459 -36 callsubr
        </CharString>
        <CharString name="commabelowcmb">
          -93 -456 -36 callsubr
        </CharString>
        <CharString name="copyright">
          511 886 -67 rmoveto
          382 296 245 367 50 hvcurveto
          14 102 rlineto
          5 34 2 38 30 vvcurveto
          379 -288 307 -424 -378 -296 -244 -345 -46 vhcurveto
          -14 -103 rlineto
          -6 -38 -3 -39 -38 vvcurveto
          -393 282 -302 424 vhcurveto
          -575 690 rmoveto
          30 2 37 5 32 vhcurveto
          14 105 rlineto
          272 36 235 207 315 hhcurveto
          340 247 -244 -319 -27 -2 -23 -4 -27 hvcurveto
          -14 -105 rlineto
          -303 -40 -245 -197 -315 hhcurveto
          -340 -234 233 329 hvcurveto
          252 -23 rmoveto
          -192 120 -118 194 173 116 94 147 24 vhcurveto
          -168 hlineto
          -56 -12 -49 -36 -74 hhcurveto
          -103 -48 68 99 20 2 23 5 26 hvcurveto
          13 71 rlineto
          118 20 65 63 88 hhcurveto
          87 49 -61 -58 hvcurveto
          -5 -1 -12 -7 vvcurveto
          165 hlineto
          4 11 1 22 8 vvcurveto
          125 -110 121 -198 -188 -119 -109 -180 -31 vhcurveto
          -17 -96 rlineto
          -5 -33 -3 -27 -26 vvcurveto
          endchar
        </CharString>
        <CharString name="cruzeiro">
          0 485 783 rmoveto
          249 43 172 131 231 hhcurveto
          106 86 -17 -21 61 hvcurveto
          39 223 rlineto
          25 -65 -113 18 -117 hhcurveto
          -360 -271 -205 -374 -71 hvcurveto
          -25 -132 rlineto
          -10 -49 -5 -57 -49 vvcurveto
          -336 284 -215 364 51 59 3 5 41 vhcurveto
          38 225 rlineto
          -4 -35 -57 -3 -50 hhcurveto
          -38 -37 3 5 -34 hvcurveto
          45 247 rlineto
          140 25 67 73 110 hhcurveto
          30 27 -3 -6 18 hvcurveto
          34 187 rlineto
          7 -17 -17 2 -25 hhcurveto
          -91 -70 -47 -101 -42 hvcurveto
          -10 hlineto
          25 134 rlineto
          -181 hlineto
          -101 -573 rlineto
          -93 57 -54 93 126 vvcurveto
          32 4 44 7 37 vhcurveto
          endchar
        </CharString>
        <CharString name="currency">
          0 419 650 rmoveto
          122 98 99 121 120 98 -99 -122 -122 -98 -99 -120 -121 -98 99 122 vhcurveto
          533 -546 rmoveto
          141 129 -133 165 rlineto
          55 68 36 85 94 vvcurveto
          69 -17 70 -28 57 vhcurveto
          199 155 -124 149 -198 -157 rlineto
          55 -68 -79 30 -91 hhcurveto
          -69 -69 -17 -31 -57 hvcurveto
          -140 176 -142 -130 141 -177 rlineto
          -53 -67 -31 -81 -91 vvcurveto
          -70 16 -70 30 -58 vhcurveto
          -189 -150 124 -147 189 150 rlineto
          -52 66 79 -30 94 hhcurveto
          63 66 14 29 54 hvcurveto
          endchar
        </CharString>
        <CharString name="d">
          27 578 1076 -98 callgsubr
          endchar
        </CharString>
        <CharString name="dagger">
          -221 945 877 rmoveto
          37 221 -256 -4 51 271 rlineto
          -235 hlineto
          -43 -271 -255 4 -38 -221 256 3 -104 -563 rlineto
          235 hlineto
          96 563 rlineto
          endchar
        </CharString>
        <CharString name="daggerdbl">
          -221 874 473 rmoveto
          35 207 -257 -4 29 144 23 148 256 -3 35 207 -257 -4 39 197 rlineto
          -235 hlineto
          -31 -197 -255 4 -35 -207 256 3 -30 -145 -22 -147 -255 4 -35 -207 256 3 -39 -197 rlineto
          235 hlineto
          31 197 rlineto
          endchar
        </CharString>
        <CharString name="dblgrave">
          -205 690 1231 -44 callgsubr
        </CharString>
        <CharString name="dblgravecmb">
          65 1231 -44 callgsubr
        </CharString>
        <CharString name="dblgravecmb.short">
          106 1504 -38 callsubr
          endchar
        </CharString>
        <CharString name="dcaron">
          263 1425 1437 rmoveto
          -94 -490 rlineto
          177 hlineto
          146 490 rlineto
          -1076 -361 -98 callgsubr
          endchar
        </CharString>
        <CharString name="dcircumflexbelow">
          27 578 1076 -98 callgsubr
          -736 -1045 -63 callgsubr
          endchar
        </CharString>
        <CharString name="dcommaaccent">
          27 578 1076 -98 callgsubr
          -319 -1091 -36 callsubr
        </CharString>
        <CharString name="dcroat">
          38 849 635 rmoveto
          -17 -1 -29 -4 -21 vhcurveto
          -20 -107 rlineto
          -155 -27 -87 -100 -130 hhcurveto
          -125 -78 83 137 27 3 35 3 20 hvcurveto
          22 108 rlineto
          143 27 81 99 131 hhcurveto
          103 102 -74 -149 hvcurveto
          -88 -462 rmoveto
          15 hlineto
          -30 -173 49 callgsubr
          204 1150 rlineto
          142 hlineto
          27 159 rlineto
          -151 hlineto
          24 128 rlineto
          -248 hlineto
          -23 -128 rlineto
          -217 hlineto
          -26 -159 rlineto
          207 hlineto
          -52 -294 rlineto
          -14 hlineto
          109 -17 -114 111 -173 hhcurveto
          -240 -151 -168 -252 -46 hvcurveto
          -27 -131 rlineto
          -8 -43 -4 -52 -46 vvcurveto
          -246 146 -150 214 162 104 92 93 33 vhcurveto
          endchar
        </CharString>
        <CharString name="ddotaccent">
          27 578 1076 -98 callgsubr
          195 1051 -78 callgsubr
        </CharString>
        <CharString name="ddotbelow">
          27 578 1076 -98 callgsubr
          -469 -871 -97 callsubr
        </CharString>
        <CharString name="decyrillic">
          84 12 callsubr
        </CharString>
        <CharString name="decyrillic.1">
          -30 1069 427 rmoveto
          29 164 rlineto
          468 83 -132 407 -467 hhcurveto
          -81 -84 -12 -27 -72 hvcurveto
          -42 -226 rlineto
          32 88 73 13 80 hhcurveto
          237 83 -172 -196 8 hvcurveto
          -8 hlineto
          60 -43 -85 70 -161 hhcurveto
          -222 -167 -140 -231 -50 hvcurveto
          -4 -15 -14 -75 -3 -19 rrcurveto
          -7 -36 -3 -34 -33 vvcurveto
          -269 181 -175 280 286 167 164 282 50 vhcurveto
          -440 392 rmoveto
          123 79 -83 -135 -28 -3 -34 -5 -29 hvcurveto
          -13 -68 rlineto
          -148 -26 -78 -101 -134 hhcurveto
          -133 -72 98 131 26 3 33 5 28 hvcurveto
          11 61 rlineto
          144 25 81 105 137 hhcurveto
          endchar
        </CharString>
        <CharString name="degree">
          -490 478 797 rmoveto
          166 129 127 166 166 -128 126 -167 -169 -128 -126 -166 -166 129 -127 168 hvcurveto
          156 vmoveto
          -73 -61 63 74 74 61 62 73 73 60 -60 -76 -76 -60 -61 -73 hvcurveto
          endchar
        </CharString>
        <CharString name="deltagreek">
          -63 541 -19 rmoveto
          267 185 158 276 56 hvcurveto
          10 50 6 47 43 vvcurveto
          182 -66 114 -220 167 vhcurveto
          -104 73 -26 31 43 vvcurveto
          49 43 34 77 94 121 -37 -55 87 vhcurveto
          53 190 rlineto
          64 -77 -154 51 -161 hhcurveto
          -221 -126 -115 -159 -86 49 -70 94 -64 hvcurveto
          -2 -11 rlineto
          -1 hlineto
          -220 -16 -149 -164 -45 -234 rrcurveto
          -10 -48 -4 -41 -38 vvcurveto
          -298 201 -136 243 vhcurveto
          7 202 rmoveto
          -103 -90 62 148 29 4 45 10 53 hvcurveto
          191 35 89 76 117 hhcurveto
          112 89 -58 -155 -26 -5 -52 -8 -40 hvcurveto
          -194 -35 -86 -79 -129 hhcurveto
          endchar
        </CharString>
        <CharString name="dieresis">
          -205 466 1233 -101 callsubr
        </CharString>
        <CharString name="dieresisacutecmb">
          -171 1331 0 callsubr
        </CharString>
        <CharString name="dieresisacutecmb.short">
          105 1753 -25 callsubr
          endchar
        </CharString>
        <CharString name="dieresisbelowcmb">
          -311 -362 -101 callsubr
        </CharString>
        <CharString name="dieresiscaroncmb">
          107 18 callsubr
        </CharString>
        <CharString name="dieresiscaroncmb.short">
          626 1945 19 callsubr
        </CharString>
        <CharString name="dieresiscmb">
          -33 1216 -101 callsubr
        </CharString>
        <CharString name="dieresiscmb.short">
          -97 13 callsubr
          endchar
        </CharString>
        <CharString name="dieresisgravecmb">
          -180 26 callgsubr
        </CharString>
        <CharString name="dieresisgravecmb.short">
          -85 1945 rmoveto
          237 -192 rlineto
          188 hlineto
          -193 192 rlineto
          -244 -366 -101 callgsubr
          endchar
        </CharString>
        <CharString name="dieresismacroncmb">
          508 1592 -49 callgsubr
        </CharString>
        <CharString name="dieresismacroncmb.short">
          570 1911 -26 callsubr
        </CharString>
        <CharString name="dieresistonosgreek">
          36 338 1334 -42 callgsubr
        </CharString>
        <CharString name="divide">
          0 505 977 28 callgsubr
        </CharString>
        <CharString name="divide.uc">
          0 523 1129 28 callgsubr
        </CharString>
        <CharString name="djecyrillic">
          54 765 -15 rmoveto
          -92 -16 -59 -53 -90 hhcurveto
          -30 -26 4 5 -17 hvcurveto
          -39 -209 rlineto
          -6 24 55 -7 37 hhcurveto
          251 132 113 242 42 hvcurveto
          103 581 rlineto
          13 75 9 63 53 vvcurveto
          181 -113 144 -212 -145 -107 -68 -113 -54 vhcurveto
          -15 hlineto
          47 260 rlineto
          202 hlineto
          26 159 rlineto
          -199 hlineto
          22 120 -7 callgsubr
          -21 -120 rlineto
          -118 hlineto
          -27 -159 rlineto
          117 hlineto
          -204 -1158 42 callsubr
          107 603 rlineto
          150 26 85 111 141 hhcurveto
          119 49 -77 -98 -38 -7 -49 -4 -25 hvcurveto
          endchar
        </CharString>
        <CharString name="dlinebelow">
          27 578 1076 -98 callgsubr
          -50 -977 -82 callgsubr
        </CharString>
        <CharString name="dollar">
          0 400 -129 rmoveto
          128 hlineto
          25 111 rlineto
          -2 13 12 0 13 hhcurveto
          298 228 147 272 1 hvcurveto
          1 218 -149 86 -180 68 -6 2 -41 15 -3 1 91 393 rcurveline
          75 -28 58 -58 7 -80 rrcurveto
          -8 0 -7 -6 vvcurveto
          205 hlineto
          3 1 17 7 vvcurveto
          180 -126 121 -176 44 vhcurveto
          33 146 rlineto
          -129 hlineto
          -29 -126 rlineto
          -8 -21 1 -9 hhcurveto
          -268 -224 -144 -255 -202 146 -103 154 -60 hvcurveto
          8 -3 33 -12 8 -4 -96 -420 rcurveline
          -100 32 -63 76 81 vvcurveto
          6 1 4 1 5 vhcurveto
          -217 hlineto
          -2 -11 0 -13 -13 vvcurveto
          -173 129 -135 207 -46 vhcurveto
          456 370 rmoveto
          -130 -123 -75 -156 vhcurveto
          -11 hlineto
          92 402 3 -1 3 -1 3 -1 rlinecurve
          110 -41 79 -50 -103 vvcurveto
          -427 642 rmoveto
          128 124 67 118 vhcurveto
          8 hlineto
          -87 -373 -3 2 -4 1 -4 2 rlinecurve
          -98 39 -54 50 84 vvcurveto
          endchar
        </CharString>
        <CharString name="dotaccent">
          -205 526 1421 rmoveto
          -96 69 -59 87 87 70 59 96 94 -69 62 -88 -87 -69 -60 -96 vhcurveto
          endchar
        </CharString>
        <CharString name="dotaccentcmb">
          46 1374 -73 callsubr
        </CharString>
        <CharString name="dotaccentcmb.short">
          83 1615 -78 callgsubr
        </CharString>
        <CharString name="dotbelowcmb">
          -243 37 callgsubr
          endchar
        </CharString>
        <CharString name="dotlessi">
          -30 callgsubr
          endchar
        </CharString>
        <CharString name="dotlessj">
          -577 562 1063 rmoveto
          53 callsubr
          endchar
        </CharString>
        <CharString name="dotmacroncmb">
          516 1592 rmoveto
          25 142 rlineto
          -627 hlineto
          111 callsubr
          148 -248 -73 callsubr
        </CharString>
        <CharString name="dotmacroncmb.short">
          77 1570 22 callgsubr
        </CharString>
        <CharString name="dzecyrillic">
          -115 193 -100 callgsubr
          endchar
        </CharString>
        <CharString name="dzhecyrillic">
          37 433 hmoveto
          -50 -285 rlineto
          230 hlineto
          50 285 rlineto
          346 56 callgsubr
          101 callsubr
          rlineto
          -391 80 callgsubr
          -266 -29 callgsubr
          endchar
        </CharString>
        <CharString name="e">
          -71 551 -19 -3 callgsubr
        </CharString>
        <CharString name="eacute">
          -71 551 -19 -106 callsubr
          -236 596 -75 callsubr
        </CharString>
        <CharString name="ebreve">
          -71 551 -19 -106 callsubr
          -369 887 -80 callsubr
          endchar
        </CharString>
        <CharString name="ecaron">
          -71 551 -19 -106 callsubr
          293 949 -76 callsubr
        </CharString>
        <CharString name="ecedilla">
          -71 -34 callsubr
          endchar
        </CharString>
        <CharString name="ecedillabreve">
          -70 -34 callsubr
          -9 2005 -80 callsubr
          endchar
        </CharString>
        <CharString name="ecircumflex">
          -71 551 -19 -106 callsubr
          -449 596 -76 callgsubr
          endchar
        </CharString>
        <CharString name="ecircumflexacute">
          -71 551 -19 -106 callsubr
          -460 596 -28 callgsubr
        </CharString>
        <CharString name="ecircumflexbelow">
          -71 551 -19 -106 callsubr
          -734 -1045 -63 callgsubr
          endchar
        </CharString>
        <CharString name="ecircumflexdotbelow">
          -71 551 -19 -106 callsubr
          -449 596 -76 callgsubr
          -322 -1822 -97 callsubr
        </CharString>
        <CharString name="ecircumflexgrave">
          -71 551 -19 -106 callsubr
          -460 596 -32 callsubr
        </CharString>
        <CharString name="ecircumflexhookabove">
          -71 551 -19 -106 callsubr
          -460 596 -58 callgsubr
        </CharString>
        <CharString name="ecircumflextilde">
          -71 551 -19 -106 callsubr
          -451 596 -60 callsubr
        </CharString>
        <CharString name="ecyrillic">
          -105 -8 callsubr
          endchar
        </CharString>
        <CharString name="edblgrave">
          -71 551 -19 -106 callsubr
          -186 596 -44 callgsubr
        </CharString>
        <CharString name="edieresis">
          -71 551 -19 -106 callsubr
          -284 581 -101 callsubr
        </CharString>
        <CharString name="edotaccent">
          -71 551 -19 -106 callsubr
          -205 739 -73 callsubr
        </CharString>
        <CharString name="edotbelow">
          -71 551 -19 -106 callsubr
          -467 -871 -97 callsubr
        </CharString>
        <CharString name="efcyrillic">
          328 508 -353 rmoveto
          246 hlineto
          59 330 rlineto
          3 8 12 -4 11 hhcurveto
          318 4 216 135 62 317 13 64 rcurveline
          8 42 4 40 38 vvcurveto
          1 254 -172 174 -288 32 48 269 rcurveline
          -247 hlineto
          -46 -263 rlineto
          -9 -11 0 -9 hhcurveto
          -315 -2 -222 -136 -62 -318 -13 -64 rcurveline
          -8 -43 -4 -40 -40 vvcurveto
          1 -252 171 -173 288 -32 rrcurveto
          39 203 rmoveto
          -175 28 -67 86 -1 133 rrcurveto
          35 4 38 7 40 vhcurveto
          7 39 36 207 126 73 151 9 rlinecurve
          11 13 1 -1 11 hvcurveto
          236 -2 rmoveto
          175 -29 68 -86 -133 vvcurveto
          -1 -35 -3 -37 -7 -40 -7 -39 rcurveline
          -36 -209 -127 -72 -153 -8 rrcurveto
          -1 -11 -10 0 -11 hhcurveto
          endchar
        </CharString>
        <CharString name="egrave">
          -71 551 -19 -106 callsubr
          21 596 -37 callgsubr
        </CharString>
        <CharString name="ehookabove">
          -71 551 -19 -106 callsubr
          -229 814 -65 callsubr
        </CharString>
        <CharString name="eight">
          65 915 -22 callgsubr
        </CharString>
        <CharString name="eight.dnum">
          -337 603 441 -61 callgsubr
        </CharString>
        <CharString name="eight.numr">
          -337 690 931 -61 callgsubr
        </CharString>
        <CharString name="eight.subs">
          -337 535 55 -61 callgsubr
        </CharString>
        <CharString name="eight.sups">
          -363 760 1317 -61 callgsubr
        </CharString>
        <CharString name="eight.tnum">
          0 881 -22 callgsubr
        </CharString>
        <CharString name="einvertedbreve">
          -71 551 -19 -106 callsubr
          216 600 -59 callgsubr
        </CharString>
        <CharString name="elcyrillic">
          -4 286 674 -43 callsubr
        </CharString>
        <CharString name="ellipsis">
          502 1185 152 rmoveto
          89 callgsubr
          -553 hmoveto
          48 callgsubr
          -554 hmoveto
          89 callgsubr
          endchar
        </CharString>
        <CharString name="emacron">
          -71 551 -19 -106 callsubr
          213 613 -82 callgsubr
        </CharString>
        <CharString name="emacronacute">
          -71 551 -19 -106 callsubr
          -182 897 33 callsubr
        </CharString>
        <CharString name="emacrongrave">
          -71 551 -19 -106 callsubr
          -153 897 36 callsubr
        </CharString>
        <CharString name="emcyrillic">
          319 449 25 callsubr
        </CharString>
        <CharString name="emdash">
          843 2054 440 rmoveto
          41 243 rlineto
          -2048 77 callgsubr
        </CharString>
        <CharString name="emdash.uc">
          843 1967 576 rmoveto
          41 244 rlineto
          -1825 hlineto
          -41 124 callsubr
        </CharString>
        <CharString name="emquad">
          843 endchar
        </CharString>
        <CharString name="emspace">
          760 endchar
        </CharString>
        <CharString name="encyrillic">
          47 754 hmoveto
          -38 callgsubr
        </CharString>
        <CharString name="endash">
          27 1237 440 rmoveto
          41 243 rlineto
          -1231 77 callgsubr
        </CharString>
        <CharString name="endash.uc">
          27 1150 576 rmoveto
          42 243 rlineto
          -1010 77 callgsubr
        </CharString>
        <CharString name="enquad">
          -181 endchar
        </CharString>
        <CharString name="enspace">
          30 endchar
        </CharString>
</ttFont>
